<svg width="152" height="33" viewBox="0 0 152 33" fill="none" xmlns="http://www.w3.org/2000/svg">
<path d="M24.5473 11.8941C25.1905 12.5063 25.2068 13.5149 24.5837 14.1468L18.7585 20.054C18.1354 20.686 17.1087 20.702 16.4654 20.0898C15.8222 19.4776 15.8059 18.469 16.429 17.8371L22.2542 11.9299C22.8773 11.2979 23.904 11.2819 24.5473 11.8941Z" fill="url(#paint0_linear_6_31)"/>
<path fill-rule="evenodd" clip-rule="evenodd" d="M0 4.54673C0 2.03564 2.07211 0 4.62819 0H21.5399V0.00124069C28.9908 0.0998525 35 6.06429 35 13.4075C35 20.8123 28.8897 26.8151 21.3523 26.8151C18.6648 26.8151 16.1587 26.052 14.0463 24.7342L6.58815 31.9057C4.13431 34.2652 0 32.5573 0 29.1841V4.54673ZM11.5194 22.7055C9.15709 20.295 7.70452 17.0179 7.70452 13.4075C7.70452 12.5277 8.43056 11.8144 9.32619 11.8144C10.2218 11.8144 10.9479 12.5277 10.9479 13.4075C10.9479 19.0526 15.6061 23.6288 21.3523 23.6288C27.0985 23.6288 31.7567 19.0526 31.7567 13.4075C31.7567 7.76248 27.0985 3.18626 21.3523 3.18626H4.62819C3.86336 3.18626 3.24334 3.79536 3.24334 4.54673V29.1841C3.24334 29.7351 3.91866 30.014 4.31948 29.6286L11.5194 22.7055Z" fill="url(#paint1_linear_6_31)"/>
<path d="M39.0341 9.96236V7.09091H54.1207V9.96236H48.2763V26H44.8786V9.96236H39.0341ZM59.0327 26.2862C58.134 26.2862 57.3246 26.1262 56.6044 25.8061C55.8904 25.4799 55.3241 24.9998 54.9055 24.3658C54.4931 23.7318 54.2869 22.95 54.2869 22.0206C54.2869 21.2204 54.4347 20.5587 54.7301 20.0355C55.0256 19.5123 55.4287 19.0938 55.9396 18.7798C56.4505 18.4659 57.026 18.2289 57.6662 18.0689C58.3125 17.9027 58.9804 17.7827 59.6697 17.7088C60.5007 17.6226 61.1747 17.5457 61.6918 17.478C62.2088 17.4041 62.5843 17.2933 62.8182 17.1456C63.0582 16.9917 63.1783 16.7547 63.1783 16.4347V16.3793C63.1783 15.6837 62.9721 15.1451 62.5597 14.7635C62.1473 14.3819 61.5533 14.1911 60.7777 14.1911C59.959 14.1911 59.3097 14.3696 58.8295 14.7266C58.3556 15.0836 58.0355 15.5052 57.8693 15.9915L54.7486 15.5483C54.9948 14.6866 55.401 13.9664 55.9673 13.3878C56.5336 12.803 57.2261 12.366 58.0447 12.0767C58.8634 11.7812 59.7682 11.6335 60.7592 11.6335C61.4425 11.6335 62.1226 11.7135 62.7997 11.8736C63.4768 12.0336 64.0954 12.2983 64.6555 12.6676C65.2157 13.0308 65.665 13.5263 66.0036 14.1541C66.3482 14.782 66.5206 15.5668 66.5206 16.5085V26H63.3075V24.0518H63.1967C62.9936 24.4458 62.7074 24.8151 62.3381 25.1598C61.9749 25.4983 61.5163 25.7723 60.9624 25.9815C60.4145 26.1847 59.7713 26.2862 59.0327 26.2862ZM59.9006 23.8303C60.5715 23.8303 61.1532 23.6979 61.6456 23.4332C62.138 23.1624 62.5166 22.8054 62.7812 22.3622C63.0521 21.919 63.1875 21.4358 63.1875 20.9126V19.2415C63.0829 19.3277 62.9044 19.4077 62.652 19.4815C62.4058 19.5554 62.1288 19.62 61.821 19.6754C61.5133 19.7308 61.2086 19.7801 60.907 19.8232C60.6054 19.8662 60.3438 19.9032 60.1222 19.9339C59.6236 20.0017 59.1773 20.1125 58.7834 20.2663C58.3894 20.4202 58.0786 20.6357 57.8509 20.9126C57.6231 21.1835 57.5092 21.5343 57.5092 21.9652C57.5092 22.5807 57.7339 23.0455 58.1832 23.3594C58.6326 23.6733 59.205 23.8303 59.9006 23.8303ZM73.2237 7.09091V26H69.8814V7.09091H73.2237ZM82.9391 26.277C81.5172 26.277 80.2892 25.9815 79.2551 25.3906C78.2272 24.7936 77.4363 23.9503 76.8823 22.8608C76.3283 21.7652 76.0513 20.4756 76.0513 18.9922C76.0513 17.5334 76.3283 16.2531 76.8823 15.1513C77.4424 14.0433 78.2241 13.1816 79.2275 12.5661C80.2308 11.9444 81.4095 11.6335 82.7637 11.6335C83.6377 11.6335 84.4625 11.7751 85.2381 12.0582C86.0198 12.3352 86.7092 12.7661 87.3063 13.3509C87.9095 13.9356 88.3835 14.6804 88.7282 15.5852C89.0729 16.4839 89.2452 17.5549 89.2452 18.7983V19.8232H77.6209V17.5703H86.0414C86.0352 16.9302 85.8967 16.3608 85.6259 15.8622C85.3551 15.3575 84.9765 14.9605 84.4902 14.6712C84.0101 14.3819 83.45 14.2372 82.8098 14.2372C82.1266 14.2372 81.5265 14.4034 81.0094 14.7358C80.4924 15.062 80.0892 15.4929 79.7999 16.0284C79.5167 16.5578 79.3721 17.1394 79.3659 17.7734V19.7401C79.3659 20.5649 79.5167 21.2727 79.8184 21.8636C80.12 22.4484 80.5416 22.8977 81.0833 23.2116C81.6249 23.5194 82.2589 23.6733 82.9853 23.6733C83.4715 23.6733 83.9116 23.6056 84.3056 23.4702C84.6995 23.3286 85.0411 23.1224 85.3304 22.8516C85.6197 22.5807 85.8382 22.2453 85.986 21.8452L89.1067 22.196C88.9097 23.0208 88.5343 23.741 87.9803 24.3565C87.4325 24.9659 86.7308 25.4399 85.8752 25.7784C85.0196 26.1108 84.0409 26.277 82.9391 26.277ZM95.4151 17.6903V26H92.0728V11.8182H95.2674V14.228H95.4336C95.7598 13.4339 96.2799 12.803 96.994 12.3352C97.7141 11.8674 98.6036 11.6335 99.6623 11.6335C100.641 11.6335 101.493 11.8428 102.22 12.2614C102.952 12.6799 103.519 13.2862 103.919 14.0803C104.325 14.8743 104.525 15.8376 104.519 16.9702V26H101.176V17.4872C101.176 16.5393 100.93 15.7976 100.438 15.2621C99.9516 14.7266 99.2776 14.4588 98.4158 14.4588C97.8311 14.4588 97.311 14.5881 96.8555 14.8466C96.4061 15.099 96.0522 15.4652 95.7937 15.9453C95.5413 16.4254 95.4151 17.0071 95.4151 17.6903ZM114.998 11.8182V14.4034H106.846V11.8182H114.998ZM108.858 8.42045H112.201V21.7344C112.201 22.1837 112.268 22.5284 112.404 22.7685C112.545 23.0024 112.73 23.1624 112.958 23.2486C113.185 23.3348 113.438 23.3778 113.715 23.3778C113.924 23.3778 114.115 23.3625 114.287 23.3317C114.466 23.3009 114.601 23.2732 114.694 23.2486L115.257 25.8615C115.078 25.9231 114.823 25.9908 114.49 26.0646C114.164 26.1385 113.764 26.1816 113.29 26.1939C112.453 26.2185 111.699 26.0923 111.028 25.8153C110.357 25.5322 109.825 25.0952 109.431 24.5043C109.043 23.9134 108.852 23.1747 108.858 22.2884V8.42045ZM117.794 26V11.8182H121.136V26H117.794ZM119.474 9.8054C118.945 9.8054 118.489 9.62997 118.107 9.27912C117.726 8.92211 117.535 8.49432 117.535 7.99574C117.535 7.491 117.726 7.06321 118.107 6.71236C118.489 6.35535 118.945 6.17685 119.474 6.17685C120.009 6.17685 120.465 6.35535 120.84 6.71236C121.222 7.06321 121.413 7.491 121.413 7.99574C121.413 8.49432 121.222 8.92211 120.84 9.27912C120.465 9.62997 120.009 9.8054 119.474 9.8054ZM131.756 11.8182V14.4034H123.373V11.8182H131.756ZM125.468 26V10.4794C125.468 9.52533 125.665 8.7313 126.059 8.0973C126.459 7.4633 126.995 6.98935 127.666 6.67543C128.337 6.3615 129.082 6.20454 129.9 6.20454C130.479 6.20454 130.993 6.25071 131.442 6.34304C131.891 6.43537 132.224 6.51847 132.439 6.59233L131.775 9.17756C131.633 9.13447 131.454 9.09138 131.239 9.04829C131.024 8.99905 130.783 8.97443 130.519 8.97443C129.897 8.97443 129.457 9.12524 129.199 9.42685C128.946 9.7223 128.82 10.147 128.82 10.701V26H125.468ZM136.451 31.3182C135.996 31.3182 135.574 31.2813 135.186 31.2074C134.804 31.1397 134.5 31.0597 134.272 30.9673L135.048 28.3636C135.534 28.5052 135.968 28.5729 136.349 28.5668C136.731 28.5606 137.067 28.4406 137.356 28.2067C137.651 27.9789 137.901 27.5973 138.104 27.0618L138.39 26.2955L133.247 11.8182H136.793L140.061 22.5284H140.209L143.487 11.8182H147.041L141.363 27.7173C141.098 28.4683 140.747 29.1115 140.31 29.647C139.873 30.1887 139.338 30.6011 138.704 30.8842C138.076 31.1735 137.325 31.3182 136.451 31.3182Z" fill="white"/>
<defs>
<linearGradient id="paint0_linear_6_31" x1="31.5325" y1="2.21268" x2="1.00231" y2="33.2898" gradientUnits="userSpaceOnUse">
<stop stop-color="#9038FF"/>
<stop offset="0.993738" stop-color="#5551FF"/>
</linearGradient>
<linearGradient id="paint1_linear_6_31" x1="31.5325" y1="2.21268" x2="1.00231" y2="33.2898" gradientUnits="userSpaceOnUse">
<stop stop-color="#9038FF"/>
<stop offset="0.993738" stop-color="#5551FF"/>
</linearGradient>
</defs>
</svg>
