<svg id="a3d88b38-e60b-41b3-8835-4ee7fc4538d0" data-name="Layer 1" xmlns="http://www.w3.org/2000/svg" width="865.76" height="682.89" viewBox="0 0 865.76 682.89"><path d="M744.39,592.73a26,26,0,0,0-1,4.62c-.06.48.05,1.15.53,1.17s.62-.47.73-.86c.4-1.55.8-3.09,1.21-4.64" fill="#2f2e41"/><path d="M789.79,284.81c-6.15,33-50.06,272.66-50.06,272.66l25,4.5,52-272a13.73,13.73,0,0,0-10-15.92h0A13.71,13.71,0,0,0,789.79,284.81Z" fill="#5156be"/><path d="M798.17,277.05l4.1-17.59a6.56,6.56,0,0,1,7.65-4.94h0a6.54,6.54,0,0,1,5.09,8l-4.09,17Z" fill="#5156be"/><path d="M811.79,315.1c-.13.52-5.92-.53-12.92-2.34s-12.58-3.7-12.44-4.21,5.91.53,12.92,2.34S811.93,314.59,811.79,315.1Z" fill="#2f2e41"/><path d="M775.08,336.6c-.26,0,0-4.73.9-12.28s2.51-17.93,4.95-29.28c1.18-5.61,2.43-11.32,5.68-15.57a17.94,17.94,0,0,1,11.73-6.88,17,17,0,0,1,9.07,1.23c2,.88,2.89,1.7,2.83,1.79s-1.11-.45-3.09-1.09a17.89,17.89,0,0,0-8.6-.59,16.91,16.91,0,0,0-10.51,6.6c-2.87,3.87-4,9.27-5.23,14.91-2.43,11.3-4.24,21.6-5.48,29.08S775.35,336.63,775.08,336.6Z" fill="#2f2e41"/><path d="M739.73,557.47s0,35.51,5.08,36.48c5.8,1.11,19.88-32,19.88-32Z" fill="#375a64"/><path d="M763.5,562.6c-.11.22-5-2.61-11.61-4.05s-12.23-1-12.23-1.25a12.71,12.71,0,0,1,3.63-.38,37.89,37.89,0,0,1,17.08,3.8A12.44,12.44,0,0,1,763.5,562.6Z" fill="#2f2e41"/><polygon points="411.05 109.72 411.05 603.38 766.93 603.38 755.88 120.59 411.05 109.72" fill="#2f2e41"/><polygon points="422.59 106.7 411.05 109.72 432.25 603.38 778.42 596.93 784.87 586.69 558.91 116.2 422.59 106.7" fill="#e1e1e1"/><polygon points="411.05 109.72 409.38 600.27 766.9 602.13 755.88 120.59 411.05 109.72" fill="#5156be"/><polygon points="424.62 106.61 411.05 109.72 432.25 603.38 778.42 596.93 784.87 586.69 558.91 116.2 424.62 106.61" fill="#e1e1e1"/><polygon points="789.74 585.39 448.81 585.39 424.62 106.61 760.91 106.61 789.74 585.39" fill="#fafafa"/><path d="M789.34,587.89c-.18-3-11.93-196-29.16-478.76l.34.31-336.3,0,.37-.39c0,.67.07,1.41.11,2.14,9,178.47,17.31,343.56,24,476.64l-.3-.29,340.92.31-340.92.3h-.29v-.29C441.37,454.82,433,289.74,424,111.27c0-.74-.07-1.47-.11-2.14l0-.39h.39l336.3,0h.32l0,.32C777.68,391.87,789.16,584.89,789.34,587.89Z" fill="#2f2e41"/><path d="M550.89,217.85a1,1,0,0,1-.68-.24.73.73,0,0,1-.26-.56v-.19a.48.48,0,0,1,.1-.28l3.94-9.33a5.21,5.21,0,0,1,.28-.68,5.33,5.33,0,0,0,.28-.73c.56-1.37,1.13-2.75,1.71-4.12s1.13-2.69,1.67-3.94l1.17-2.87c.4-.9.76-1.76,1.08-2.57a14.77,14.77,0,0,1,.89-2l-1.41-.29q-1.83-.32-3.54-.54a26.17,26.17,0,0,0-3.17-.21,7.8,7.8,0,0,0-3.16.57,1.83,1.83,0,0,0-1.29,1.73,2,2,0,0,0,.3,1.08,1,1,0,0,0,.92.47.75.75,0,0,1,.58.23.9.9,0,0,1-.09,1.27,1.07,1.07,0,0,1-.77.28,2.08,2.08,0,0,1-1.06-.28,3.1,3.1,0,0,1-.87-.75,4.08,4.08,0,0,1-.61-1.06,3.41,3.41,0,0,1-.23-1.24,3.27,3.27,0,0,1,.56-1.92,4.31,4.31,0,0,1,1.48-1.29,7.6,7.6,0,0,1,2.06-.73,11.91,11.91,0,0,1,2.28-.23,20.73,20.73,0,0,1,2.86.21l3,.44c1.78.29,3.33.51,4.64.68a27.12,27.12,0,0,0,3.66.26,13.51,13.51,0,0,0,2.6-.23,8.35,8.35,0,0,0,2.14-.75,1.42,1.42,0,0,1,.26-.1,1,1,0,0,1,.25,0,.72.72,0,0,1,.66.28,1,1,0,0,1,.19.61,1.31,1.31,0,0,1-.07.44.61.61,0,0,1-.21.31,9.6,9.6,0,0,1-2.84,1,15.67,15.67,0,0,1-3,.28,31.59,31.59,0,0,1-4.22-.28,17.69,17.69,0,0,0-1.27,2.63c-.5,1.22-1.21,3-2.15,5.25q-.52,1.17-1,2.34c-.31.79-.64,1.58-1,2.4l-2,4.78-3.94,9.33A.88.88,0,0,1,550.89,217.85Z" fill="#2f2e41"/><path d="M563.88,218a3.34,3.34,0,0,1-1.62-.38,3.06,3.06,0,0,1-1.1-1,4.57,4.57,0,0,1-.63-1.36,5.74,5.74,0,0,1-.21-1.55,10.29,10.29,0,0,1,.37-2.6,13.8,13.8,0,0,1,1.15-2.89,15.61,15.61,0,0,1,1.9-2.76,12.38,12.38,0,0,1,2.63-2.3l.35-.17a.85.85,0,0,1,.26-.07.87.87,0,0,1,.65.29.84.84,0,0,1,.29.61,1,1,0,0,1-.43.79,11.28,11.28,0,0,0-2.25,2,15.27,15.27,0,0,0-1.69,2.39,11.23,11.23,0,0,0-1,2.46,7.92,7.92,0,0,0-.35,2.25,3.39,3.39,0,0,0,.42,1.69,1.4,1.4,0,0,0,1.31.75,3.81,3.81,0,0,0,2.18-.77,17.05,17.05,0,0,0,1.9-1.53,5.45,5.45,0,0,1-1.5-4.17,10,10,0,0,1,.28-2.11,10.49,10.49,0,0,1,.85-2.35,6.47,6.47,0,0,1,1.4-1.9,2.82,2.82,0,0,1,1.93-.77,1.91,1.91,0,0,1,1.22.37,2.66,2.66,0,0,1,.72.94,4.5,4.5,0,0,1,.36,1.2,8.15,8.15,0,0,1,.09,1.15,9.36,9.36,0,0,1-.73,3.7,19.17,19.17,0,0,1-1.71,3.24H571a4.12,4.12,0,0,0,2.32-.87,17.38,17.38,0,0,0,2.89-2.74.93.93,0,0,1,.7-.28.73.73,0,0,1,.66.3,1.28,1.28,0,0,1,.19.63.81.81,0,0,1-.24.61,24.83,24.83,0,0,1-3.12,2.91A5.48,5.48,0,0,1,571,215a4.21,4.21,0,0,1-1.36-.19A14,14,0,0,1,567,217,5.52,5.52,0,0,1,563.88,218Zm7-13.6a1.39,1.39,0,0,0-1.06.58,5.72,5.72,0,0,0-.84,1.41,8.38,8.38,0,0,0-.54,1.74,7.64,7.64,0,0,0-.19,1.57,7.38,7.38,0,0,0,.16,1.36,2.62,2.62,0,0,0,.68,1.36,17.26,17.26,0,0,0,1.65-3,8,8,0,0,0,.7-3.14c0-.13,0-.3,0-.52s0-.43-.07-.63a1.67,1.67,0,0,0-.17-.52A.35.35,0,0,0,570.92,204.39Z" fill="#2f2e41"/><path d="M589,218.93a3,3,0,0,1-2.18-.78,2.53,2.53,0,0,1-.82-1.94,2.34,2.34,0,0,1,.82-1.85,2.76,2.76,0,0,1,1.9-.73,6.17,6.17,0,0,1,1.59.23c.56.16,1.17.36,1.83.61l.28.14a25.42,25.42,0,0,0,2.23-4.5q1.11-2.76,2.23-5.72l.33-.94c.53-1.44,1.08-2.88,1.64-4.31s1.14-2.79,1.73-4.06a30.38,30.38,0,0,1,1.86-3.4,11.85,11.85,0,0,1,1.94-2.39.86.86,0,0,1,.24-.17.81.81,0,0,1,.33-.07.75.75,0,0,1,.7.31,1.22,1.22,0,0,1,.19.63.94.94,0,0,1-.28.66,9.62,9.62,0,0,0-1.67,2.2c-.55.94-1.09,2-1.64,3.21s-1.1,2.5-1.64,3.87-1.07,2.75-1.57,4.13c-.82,2.19-1.62,4.25-2.42,6.17a41,41,0,0,1-2.41,5A21.62,21.62,0,0,0,597,216a14.8,14.8,0,0,0,3.19.33,12.42,12.42,0,0,0,4.22-.7,13.89,13.89,0,0,0,3.61-1.92,15.35,15.35,0,0,0,2.91-2.84,18.64,18.64,0,0,0,2.13-3.45,19.12,19.12,0,0,0,1.34-3.78,16.36,16.36,0,0,0,.47-3.82,11.77,11.77,0,0,0-.87-4.66,9.83,9.83,0,0,0-2.37-3.43,10.33,10.33,0,0,0-3.54-2.11,13.24,13.24,0,0,0-4.43-.73,20.22,20.22,0,0,0-3,.26,13.33,13.33,0,0,0-3,.82,9.06,9.06,0,0,0-2.25,1.39,4.36,4.36,0,0,0-1.41,2.13,2.94,2.94,0,0,0-.12.52c0,.15,0,.36,0,.61a1,1,0,0,1,.28.3.67.67,0,0,1,.14.4.85.85,0,0,1-.3.68,1.05,1.05,0,0,1-.68.26,1,1,0,0,1-1-.59,3,3,0,0,1-.28-1.34,5.3,5.3,0,0,1,1.48-3.65,9.74,9.74,0,0,1,3.73-2.54,15.92,15.92,0,0,1,3.09-.82,21.45,21.45,0,0,1,3.29-.26,14.62,14.62,0,0,1,5.25.92,12.43,12.43,0,0,1,4.15,2.58,11.63,11.63,0,0,1,2.74,4,13.26,13.26,0,0,1,1,5.21,19,19,0,0,1-1.2,6.56,19.86,19.86,0,0,1-3.37,5.91,17.64,17.64,0,0,1-5.21,4.27,13.85,13.85,0,0,1-6.68,1.64,17.13,17.13,0,0,1-3.94-.42,29.49,29.49,0,0,1-3.24-.94,6.64,6.64,0,0,1-2.25,1.69A5.11,5.11,0,0,1,589,218.93Zm-.28-3.47a1,1,0,0,0-.66.23.72.72,0,0,0,.14,1.22,1.63,1.63,0,0,0,.8.24,2.38,2.38,0,0,0,1.22-.33,6.34,6.34,0,0,0,1-.71c-.53-.18-1-.34-1.43-.46A3.66,3.66,0,0,0,588.74,215.46Z" fill="#2f2e41"/><path d="M619.83,218a3.34,3.34,0,0,1-1.62-.38,3.06,3.06,0,0,1-1.1-1,4.57,4.57,0,0,1-.63-1.36,5.74,5.74,0,0,1-.21-1.55,10.29,10.29,0,0,1,.37-2.6,14.37,14.37,0,0,1,1.15-2.89,15.61,15.61,0,0,1,1.9-2.76,12.38,12.38,0,0,1,2.63-2.3l.35-.17a.92.92,0,0,1,.26-.07.91.91,0,0,1,.66.29.87.87,0,0,1,.28.61,1,1,0,0,1-.43.79,11.28,11.28,0,0,0-2.25,2,14.57,14.57,0,0,0-1.68,2.39,11.28,11.28,0,0,0-1.06,2.46,7.92,7.92,0,0,0-.35,2.25,3.39,3.39,0,0,0,.42,1.69,1.4,1.4,0,0,0,1.31.75,3.81,3.81,0,0,0,2.18-.77,17.05,17.05,0,0,0,1.9-1.53,5.45,5.45,0,0,1-1.5-4.17,10,10,0,0,1,.28-2.11,10.49,10.49,0,0,1,.85-2.35,6.32,6.32,0,0,1,1.41-1.9,2.78,2.78,0,0,1,1.92-.77,1.89,1.89,0,0,1,1.22.37,2.66,2.66,0,0,1,.72.94,4.5,4.5,0,0,1,.36,1.2,8.15,8.15,0,0,1,.09,1.15,9.36,9.36,0,0,1-.73,3.7,19.17,19.17,0,0,1-1.71,3.24H627a4.12,4.12,0,0,0,2.32-.87,17.38,17.38,0,0,0,2.89-2.74.94.94,0,0,1,.7-.28.73.73,0,0,1,.66.3,1.28,1.28,0,0,1,.19.63.81.81,0,0,1-.24.61,24.83,24.83,0,0,1-3.12,2.91,5.48,5.48,0,0,1-3.45,1.27,4.21,4.21,0,0,1-1.36-.19,14,14,0,0,1-2.62,2.23A5.52,5.52,0,0,1,619.83,218Zm7-13.6a1.39,1.39,0,0,0-1.06.58,6,6,0,0,0-.84,1.41,8.38,8.38,0,0,0-.54,1.74,7.64,7.64,0,0,0-.19,1.57,7.54,7.54,0,0,0,.17,1.36,2.48,2.48,0,0,0,.68,1.36,17.91,17.91,0,0,0,1.64-3,8,8,0,0,0,.7-3.14c0-.13,0-.3,0-.52s0-.43-.07-.63a1.45,1.45,0,0,0-.17-.52A.35.35,0,0,0,626.87,204.39Z" fill="#2f2e41"/><path d="M633.62,216a1.31,1.31,0,0,1-.37.94,1.28,1.28,0,0,1-.94.37,1.2,1.2,0,0,1-.89-.37A1.27,1.27,0,0,1,631,216a1.29,1.29,0,0,1,.38-.91,1.16,1.16,0,0,1,.89-.4,1.23,1.23,0,0,1,.94.4A1.32,1.32,0,0,1,633.62,216Zm4.69-11.4a1.2,1.2,0,0,1-.37.89,1.27,1.27,0,0,1-.94.38,1.17,1.17,0,0,1-.89-.38,1.21,1.21,0,0,1-.38-.89,1.31,1.31,0,0,1,.38-.94,1.24,1.24,0,0,1,.89-.37,1.34,1.34,0,0,1,.94.37A1.3,1.3,0,0,1,638.31,204.62Z" fill="#2f2e41"/><path d="M491.06,260.37a.93.93,0,0,1-.88-.88.76.76,0,0,1,.27-.59.85.85,0,0,1,.61-.24h12.16a.73.73,0,0,1,.83.83.85.85,0,0,1-.24.61.75.75,0,0,1-.59.27Z" fill="#2f2e41"/><path d="M528.82,271.53a.8.8,0,0,1-.69-.28,1,1,0,0,1-.22-.64,2.22,2.22,0,0,1,.22-.78c.14-.35.32-.72.52-1.11s.41-.77.61-1.14.36-.66.48-.89c.35-1,.66-2.08.94-3.18a12.58,12.58,0,0,0,.41-2.93,5.89,5.89,0,0,0-.09-1c0-.35-.23-.52-.52-.52a3.5,3.5,0,0,0-2.29,1.33,24.21,24.21,0,0,0-2.57,3.2q-1.29,1.88-2.42,3.86c-.76,1.33-1.35,2.42-1.79,3.3a1.9,1.9,0,0,1-.39.43.78.78,0,0,1-.48.22.71.71,0,0,1-.63-.28.91.91,0,0,1-.2-.55,2,2,0,0,1,.22-.85,5.53,5.53,0,0,1,.56-.94c.35-.64.72-1.34,1.12-2.11s.74-1.55,1.06-2.34.59-1.53.81-2.24a6.63,6.63,0,0,0,.33-1.94,2.54,2.54,0,0,0-.09-.68.38.38,0,0,0-.39-.33,1.33,1.33,0,0,0-.87.48,10.31,10.31,0,0,0-1,1c-.47.52-1,1.14-1.59,1.85L518,264.77l-2,2.33c-.62.75-1.17,1.41-1.63,2s-.8,1-1,1.22-.46.5-.68.72a.73.73,0,0,1-1.16.09.79.79,0,0,1-.26-.59.8.8,0,0,1,.22-.61l.87-1.09c.47-.59,1-1.27,1.68-2.05l2.12-2.53q1.13-1.35,2.16-2.55t1.83-2.1c.53-.59.91-1,1.11-1.2a3.09,3.09,0,0,1,2.09-.91,1.75,1.75,0,0,1,1.64.85,3.43,3.43,0,0,1,.5,1.76c0,.15,0,.3,0,.46s0,.31-.07.46A16.9,16.9,0,0,1,528,258.4a4.08,4.08,0,0,1,2.48-1,2,2,0,0,1,1.11.3,2.18,2.18,0,0,1,.72.79,3.37,3.37,0,0,1,.37,1,4.92,4.92,0,0,1,.11,1.07c0,.32,0,.63,0,.94s-.07.63-.13,1a21.62,21.62,0,0,1,3.44-3.6,5.75,5.75,0,0,1,3.62-1.46,2.07,2.07,0,0,1,1.64.61,2.29,2.29,0,0,1,.54,1.57,6.73,6.73,0,0,1-.45,2.22c-.31.85-.66,1.75-1.07,2.71l-.26.61c-.35.81-.69,1.64-1,2.49a6,6,0,0,0-.48,2c0,.14,0,.22.09.22.47,0,1.28-.51,2.44-1.53a51.55,51.55,0,0,0,4.45-4.58.93.93,0,0,1,.66-.31.73.73,0,0,1,.82.83.89.89,0,0,1-.26.66q-6,6.63-8.11,6.63a1.61,1.61,0,0,1-1.35-.55,2.12,2.12,0,0,1-.44-1.37,7,7,0,0,1,.48-2.29c.32-.89.71-1.84,1.18-2.86.38-.81.74-1.68,1.09-2.62a6.72,6.72,0,0,0,.52-2.22.42.42,0,0,0-.48-.48,3.53,3.53,0,0,0-2,.81,15.22,15.22,0,0,0-2.25,2,27.88,27.88,0,0,0-2.18,2.66c-.7,1-1.32,1.86-1.88,2.7-.37,1-.74,1.91-1.11,2.68a4.3,4.3,0,0,1-.85,1.38A1.42,1.42,0,0,1,528.82,271.53Z" fill="#2f2e41"/><path d="M554.86,271.57a2.19,2.19,0,0,1-1.92-.87,3.3,3.3,0,0,1-.61-2,12,12,0,0,1-2.24,2,4.66,4.66,0,0,1-2.69.85,2.78,2.78,0,0,1-2.35-1,4.08,4.08,0,0,1-.79-2.55,8.37,8.37,0,0,1,1-3.77,13.74,13.74,0,0,1,2.56-3.52,13.89,13.89,0,0,1,3.55-2.57,8.73,8.73,0,0,1,4-1,6.34,6.34,0,0,1,1.72.19,4,4,0,0,1,.81.29,1.57,1.57,0,0,1,.37.26.53.53,0,0,1,.2.39.6.6,0,0,1-.05.24c0,.07,0,.14-.08.2-.09.23-.24.59-.46,1.07s-.48,1-.79,1.61-.64,1.23-1,1.9-.76,1.32-1.14,2a17.41,17.41,0,0,0-.63,1.94,6.52,6.52,0,0,0-.24,1.55,1.48,1.48,0,0,0,.22.81.71.71,0,0,0,.61.32,2.92,2.92,0,0,0,1.51-.8c.65-.54,1.33-1.16,2-1.86s1.36-1.39,2-2.07,1-1.17,1.31-1.46a1,1,0,0,1,.34-.26,1,1,0,0,1,.31-.05.75.75,0,0,1,.59.29.9.9,0,0,1,.24.59.87.87,0,0,1-.26.61q-2.88,3.13-4.8,4.93C556.81,271,555.73,271.57,554.86,271.57Zm.44-12.73a7.28,7.28,0,0,0-3.43.89,11.6,11.6,0,0,0-3,2.27,12.17,12.17,0,0,0-2.12,3A6.79,6.79,0,0,0,546,268a2.37,2.37,0,0,0,.35,1.29,1.17,1.17,0,0,0,1.05.54,3.28,3.28,0,0,0,1.74-.54,8.55,8.55,0,0,0,1.68-1.38,15.58,15.58,0,0,0,1.49-1.76q.68-.94,1.11-1.68v0a28.79,28.79,0,0,1,1.48-3.18c.55-1,1-1.83,1.35-2.44l-.45-.07Z" fill="#2f2e41"/><path d="M562.06,271.88a.81.81,0,0,1-.68-.26.9.9,0,0,1-.2-.53,3.53,3.53,0,0,1,.35-1.28q.36-.81.57-1.38l1.83-4.71-.91,1a.82.82,0,0,1-.66.35.85.85,0,0,1-.61-.28.89.89,0,0,1-.26-.59.75.75,0,0,1,.22-.57c.2-.2.33-.34.39-.41a1.8,1.8,0,0,1,.18-.2c.75-.84,1.42-1.61,2-2.31s1.16-1.38,1.75-2.05q2.22-5.46,3.79-8.94a34.87,34.87,0,0,1,2.53-4.89,5.54,5.54,0,0,1,1.59-1.61,2.94,2.94,0,0,1,1.46-.52,1.74,1.74,0,0,1,1.53.76,2.82,2.82,0,0,1,.52,1.63,6.26,6.26,0,0,1-1.07,2.88,41.36,41.36,0,0,1-3.11,4.45q-1.18,1.53-2.67,3.34c-1,1.2-2,2.46-3.13,3.77l-.48,1.13c.37-.4.79-.81,1.24-1.22a14,14,0,0,1,1.35-1.07,8,8,0,0,1,1.37-.74,3.6,3.6,0,0,1,1.36-.28,2.14,2.14,0,0,1,1.76.72,2.64,2.64,0,0,1,.59,1.72A3.9,3.9,0,0,1,574,262a7.6,7.6,0,0,1-1.75,1.84,11.23,11.23,0,0,1-2.38,1.35,10.68,10.68,0,0,1-2.57.72c.09.26.2.61.35,1a6.26,6.26,0,0,0,.57,1.27,3.93,3.93,0,0,0,.83,1.05,1.6,1.6,0,0,0,1.13.43,3.9,3.9,0,0,0,2.33-1.33c1-.88,2.07-2,3.38-3.38l1.27-1.35a.87.87,0,0,1,.32-.2,1.22,1.22,0,0,1,.33-.06.75.75,0,0,1,.63.26.92.92,0,0,1,.2.57.87.87,0,0,1-.26.61l-.7.74a60.7,60.7,0,0,1-4.32,4.34,5.12,5.12,0,0,1-3.36,1.5,2.67,2.67,0,0,1-1.59-.48,5,5,0,0,1-1.2-1.22,8.5,8.5,0,0,1-.89-1.63c-.25-.6-.47-1.19-.68-1.77l-.21-.61c-.32.55-.64,1.12-.94,1.7a16.15,16.15,0,0,0-.81,1.75l-.74,2a1.67,1.67,0,0,1-.28.5A.72.72,0,0,1,562.06,271.88Zm10.29-12.78a4.74,4.74,0,0,0-2.84,1.48,20.61,20.61,0,0,0-3.22,3.8c.52-.09,1.08-.21,1.68-.37a10,10,0,0,0,1.85-.72,8.49,8.49,0,0,0,2.2-1.51,2.63,2.63,0,0,0,.94-1.94C573,259.35,572.76,259.1,572.35,259.1Zm3-14.65c-.46,0-1,.45-1.61,1.35l-.68,1.09c-.24.41-.53.94-.85,1.59s-.7,1.46-1.13,2.42-1,2.12-1.53,3.49c.82-1,1.59-2,2.34-2.92s1.39-1.86,2-2.68a25.61,25.61,0,0,0,1.35-2.18,3.52,3.52,0,0,0,.5-1.42,2,2,0,0,0-.06-.5A.29.29,0,0,0,575.4,244.45Z" fill="#2f2e41"/><path d="M579.85,271.62a3.14,3.14,0,0,1-2.79-1.2,4.77,4.77,0,0,1-.83-2.77,10.3,10.3,0,0,1,.61-3.23,14.6,14.6,0,0,1,1.66-3.36,11.59,11.59,0,0,1,2.42-2.64,4.66,4.66,0,0,1,2.9-1.06,2.65,2.65,0,0,1,1.83.61,2.06,2.06,0,0,1,.7,1.65c0,1.05-.68,2.13-2,3.25a14.49,14.49,0,0,1-6,2.6,9.75,9.75,0,0,0-.26,1.15,7,7,0,0,0-.09,1.12,2.63,2.63,0,0,0,.44,1.59,1.63,1.63,0,0,0,1.39.59,8.25,8.25,0,0,0,3.91-1.55,25.56,25.56,0,0,0,5.25-4.69.93.93,0,0,1,.66-.26.65.65,0,0,1,.61.3,1.26,1.26,0,0,1,.17.57,1,1,0,0,1-.06.31.89.89,0,0,1-.16.26,28.11,28.11,0,0,1-5.47,4.95A9.12,9.12,0,0,1,579.85,271.62Zm4-12.56a2.8,2.8,0,0,0-1.46.43,6.48,6.48,0,0,0-1.33,1.09A10.71,10.71,0,0,0,579.9,262a15.53,15.53,0,0,0-.88,1.49,13.85,13.85,0,0,0,2.64-.92,8.71,8.71,0,0,0,1.72-1.07,4.12,4.12,0,0,0,1-1,1.7,1.7,0,0,0,.31-.89.4.4,0,0,0-.31-.41A1.39,1.39,0,0,0,583.82,259.06Z" fill="#2f2e41"/><path d="M604.1,271.57a1.94,1.94,0,0,1-1.09-.28,2.34,2.34,0,0,1-.7-.7,3.32,3.32,0,0,1-.39-.94,4.06,4.06,0,0,1-.13-1,10.6,10.6,0,0,1,.17-1.88c.12-.61.25-1.19.4-1.74-.88,1-1.63,1.95-2.25,2.72s-1.27,1.58-1.94,2.42l-.83,1a.8.8,0,0,1-.61.3.86.86,0,0,1-.66-.24.85.85,0,0,1-.21-.59.76.76,0,0,1,.21-.56l.59-.68c.34-.39.74-.88,1.2-1.46l1.57-1.94c.59-.71,1.15-1.41,1.7-2.09l1.6-2,1.24-1.54q1.31-3.45,2.31-5.89c.67-1.63,1.25-3,1.75-4.1s.9-2,1.22-2.6l.69-1.33a8.81,8.81,0,0,1,2.32-3,3.36,3.36,0,0,1,1.74-.69,1.51,1.51,0,0,1,1.42.72,3,3,0,0,1,.41,1.5,4.15,4.15,0,0,1-.11,1,3.35,3.35,0,0,1-.37,1,31,31,0,0,1-1.76,3.08c-.77,1.2-1.63,2.46-2.56,3.77s-1.88,2.62-2.85,3.93-1.89,2.48-2.73,3.53c-.23.61-.43,1.15-.61,1.61s-.33.9-.46,1.31-.24.81-.35,1.2-.21.83-.32,1.33a6.3,6.3,0,0,0-.16.94q-.06.63-.06.93a3,3,0,0,0,.11.9c.07.25.28.37.63.37a1.68,1.68,0,0,0,.85-.39,12,12,0,0,0,1.2-1c.44-.42.89-.88,1.35-1.39s.92-1,1.35-1.51l.92-1c.29-.32.55-.6.79-.83a.93.93,0,0,1,.65-.31.71.71,0,0,1,.63.29,1,1,0,0,1,.2.59.87.87,0,0,1-.26.61,9.23,9.23,0,0,0-.72.78c-.25.29-.53.61-.85,1-.5.55-1,1.12-1.55,1.7a21.88,21.88,0,0,1-1.62,1.59,10.37,10.37,0,0,1-1.59,1.2A2.86,2.86,0,0,1,604.1,271.57ZM614,244.45c-.24,0-.56.2-1,.61a10.06,10.06,0,0,0-1.55,2.22,40.89,40.89,0,0,0-1.94,4q-.94,2.17-1.77,4.23c.64-.87,1.27-1.74,1.9-2.62s1.2-1.71,1.74-2.53,1-1.57,1.44-2.29.76-1.33,1-1.85a3.4,3.4,0,0,0,.24-.67,3.15,3.15,0,0,0,.06-.55,1.31,1.31,0,0,0,0-.37C614.06,244.5,614,244.45,614,244.45Z" fill="#2f2e41"/><path d="M612.78,271.62a1.53,1.53,0,0,1-1.42-.7,2.72,2.72,0,0,1-.41-1.44,8.09,8.09,0,0,1,.45-2.44,27.91,27.91,0,0,1,1.07-2.75l-.32.33-.24.24a.83.83,0,0,1-.57.26.77.77,0,0,1-.59-.28.92.92,0,0,1-.24-.59,1.22,1.22,0,0,1,0-.33,2,2,0,0,1,.26-.37l4.93-5.76a1,1,0,0,1,.66-.35c.55,0,.83.24.83.7v.28a.56.56,0,0,1-.09.33q-.23.35-1,1.86c-.55,1-1.12,2.15-1.7,3.46-.41.93-.8,1.88-1.18,2.84a7,7,0,0,0-.56,2.44c0,.38.06.57.17.57a1.21,1.21,0,0,0,.5-.16,3,3,0,0,0,.64-.41c.63-.61,1.26-1.22,1.87-1.83l1.68-1.7c.51-.53.93-1,1.26-1.36l.72-.78a.93.93,0,0,1,.66-.26.71.71,0,0,1,.63.28,1,1,0,0,1,.2.55.76.76,0,0,1-.11.32c-.07.13-.14.24-.2.33s-.78.87-1.74,1.9-2.24,2.29-3.84,3.77a4.22,4.22,0,0,1-1.2.79A3,3,0,0,1,612.78,271.62Zm7.67-18.41c0,.67-.17,1.11-.52,1.31a2,2,0,0,1-1,.31.94.94,0,0,1-.87-.4,1.55,1.55,0,0,1-.26-.91,1.6,1.6,0,0,1,.41-1.11,1.33,1.33,0,0,1,1-.46,1,1,0,0,1,.89.39A1.43,1.43,0,0,1,620.45,253.21Z" fill="#2f2e41"/><path d="M620.76,271.92a5.78,5.78,0,0,1-3.08-.83,8.32,8.32,0,0,1-2.33-2.09.71.71,0,0,1-.15-.22.8.8,0,0,1-.07-.39.89.89,0,0,1,.31-.65c.72-.7,1.44-1.41,2.16-2.14s1.34-1.43,1.89-2.09c.76-.91,1.51-1.87,2.25-2.9s1.4-2,2-2.9l.48-.59a1,1,0,0,1,.79-.37.69.69,0,0,1,.57.28,1,1,0,0,1,.21.59.9.9,0,0,1-.21.5c-.15.19-.29.38-.44.59a2.25,2.25,0,0,0-.17.76c0,.31-.05.65-.05,1,0,1,.05,1.93.13,2.83l.09,1.24c0,.43,0,.84,0,1.25s0,1-.06,1.54a7.09,7.09,0,0,1-.29,1.47c.47-.32,1-.69,1.49-1.12s1-.85,1.52-1.3,1-.91,1.44-1.38.89-.91,1.27-1.35a.85.85,0,0,1,.61-.26.75.75,0,0,1,.63.26.92.92,0,0,1,.2.57.86.86,0,0,1-.22.61c-.7.78-1.48,1.6-2.33,2.44a22.69,22.69,0,0,1-2.73,2.29,16.78,16.78,0,0,1-2.94,1.68A7.58,7.58,0,0,1,620.76,271.92Zm-.22-7.06q-1.44,1.69-3.4,3.66a5.42,5.42,0,0,0,1.66,1.24,4.87,4.87,0,0,0,2.13.42,2,2,0,0,0,2-1.22,7.79,7.79,0,0,0,.52-3.06c0-.49,0-1,0-1.46s-.07-.95-.13-1.41c0-.12,0-.29,0-.51s0-.41,0-.58,0-.31,0-.4,0-.07,0,0c-.35.49-.74,1-1.18,1.52Z" fill="#2f2e41"/><path d="M631.1,265.12a.86.86,0,0,1-.64-.24.81.81,0,0,1-.24-.59.85.85,0,0,1,.26-.61,20.28,20.28,0,0,0,1.92-2.25,25.19,25.19,0,0,0,1.44-2.15h-1.61a.82.82,0,0,1-.61-.27.8.8,0,0,1-.26-.61.75.75,0,0,1,.26-.59.87.87,0,0,1,.61-.24h2.53l.65-1.39c.41-1.08.77-2,1.07-2.71s.56-1.3.77-1.74.4-.93.52-1.22a.77.77,0,0,1,.78-.52.75.75,0,0,1,.64.26.9.9,0,0,1,.19.56V251a.71.71,0,0,1-.09.31l-2.61,6.23h4a.87.87,0,0,1,.61.24.75.75,0,0,1,.26.59.8.8,0,0,1-.26.61.82.82,0,0,1-.61.27H636c-.26.63-.53,1.35-.8,2.13s-.53,1.59-.77,2.4-.43,1.59-.58,2.33a8.88,8.88,0,0,0-.25,1.94,4.08,4.08,0,0,0,.18,1.14c.12.41.35.61.7.61a2.32,2.32,0,0,0,1.2-.57,17.29,17.29,0,0,0,1.7-1.46c.62-.59,1.28-1.26,2-2s1.33-1.44,1.94-2.14a.87.87,0,0,1,.61-.26.85.85,0,0,1,.61.26.76.76,0,0,1,.26.57.83.83,0,0,1-.26.61c-.38.46-.9,1.07-1.57,1.83s-1.38,1.49-2.13,2.2a19.88,19.88,0,0,1-2.29,1.86,3.83,3.83,0,0,1-2,.78,2.11,2.11,0,0,1-1.14-.3,2.56,2.56,0,0,1-.78-.79,3.45,3.45,0,0,1-.46-1.09,5.09,5.09,0,0,1-.15-1.22,13.21,13.21,0,0,1,.17-2,21,21,0,0,1,.53-2.36l-1,1.05A.87.87,0,0,1,631.1,265.12Z" fill="#2f2e41"/><path d="M487.48,309.62a.83.83,0,0,1-.61-.26.81.81,0,0,1-.26-.61.75.75,0,0,1,.26-.59.85.85,0,0,1,.61-.24h12.17a.73.73,0,0,1,.82.83.87.87,0,0,1-.24.61.77.77,0,0,1-.58.26Z" fill="#2f2e41"/><path d="M514,320.79a2.78,2.78,0,0,1-2.34-1.05,3.93,3.93,0,0,1-.8-2.44A9,9,0,0,1,513,312a16,16,0,0,1,2.61-2.81,12.88,12.88,0,0,1,2.51-1.64,8.68,8.68,0,0,1,2.23-.74,10,10,0,0,1,1.72-.17c.26,0,.55,0,.87,0a1.37,1.37,0,0,1,.79.31c.61-1.37,1.2-2.72,1.78-4.06s1.11-2.56,1.57-3.67c.27-.63.51-1.25.72-1.85a9,9,0,0,1,.64-1.42,1.11,1.11,0,0,1,.39-.43.83.83,0,0,1,.39-.09.79.79,0,0,1,.59.26.85.85,0,0,1,.24.57,1.48,1.48,0,0,1,0,.24,1.54,1.54,0,0,1-.09.24c-.18.52-.38,1.06-.61,1.61s-.5,1.14-.79,1.75l-.56,1.39c-.41.93-.9,2.08-1.46,3.45s-1.35,3.07-2.34,5.1a36.55,36.55,0,0,0-2.07,5.15,12,12,0,0,0-.59,2.88,4.54,4.54,0,0,0,0,.59c0,.21.08.32.17.32a2.36,2.36,0,0,0,1.18-.61,19.39,19.39,0,0,0,1.7-1.52c.61-.62,1.24-1.28,1.9-2s1.27-1.37,1.85-2a1.24,1.24,0,0,1,.26-.2.77.77,0,0,1,.39-.11.73.73,0,0,1,.83.83.89.89,0,0,1-.26.65q-2.84,3.06-4.69,4.84c-1.23,1.2-2.27,1.79-3.12,1.79a1.46,1.46,0,0,1-.89-.26,2,2,0,0,1-.59-.63,3.06,3.06,0,0,1-.33-.83,3.81,3.81,0,0,1-.11-.85v-.44a2.1,2.1,0,0,1,.05-.43c-.38.43-.79.86-1.22,1.26a10.22,10.22,0,0,1-1.42,1.11,7.94,7.94,0,0,1-1.55.81A4.47,4.47,0,0,1,514,320.79ZM523,308.44h-.37a1.06,1.06,0,0,1-.33,0l-.15,0a.26.26,0,0,0-.11,0,7.8,7.8,0,0,0-1.42.17,7.53,7.53,0,0,0-1.85.68,11.15,11.15,0,0,0-2.14,1.44,14.49,14.49,0,0,0-2.27,2.42,9.72,9.72,0,0,0-1.31,2.31,5.48,5.48,0,0,0-.43,1.87,2.2,2.2,0,0,0,.37,1.29,1.23,1.23,0,0,0,1.07.55,3.55,3.55,0,0,0,1.57-.4,7.45,7.45,0,0,0,1.48-1,12,12,0,0,0,1.29-1.28,14.31,14.31,0,0,0,1-1.31,30.14,30.14,0,0,0,1.68-2.69c.51-.91,1-1.81,1.37-2.68Z" fill="#2f2e41"/><path d="M530.7,320.79a3.12,3.12,0,0,1-1.51-.35,2.92,2.92,0,0,1-1-.92,4.28,4.28,0,0,1-.59-1.26,5.38,5.38,0,0,1-.2-1.44,9.74,9.74,0,0,1,.35-2.42,12.45,12.45,0,0,1,1.07-2.69,14.37,14.37,0,0,1,1.77-2.57A11.39,11.39,0,0,1,533,307l.33-.16a.69.69,0,0,1,.24-.06.83.83,0,0,1,.61.26.79.79,0,0,1,.26.57.92.92,0,0,1-.39.74,10,10,0,0,0-2.1,1.85,14.24,14.24,0,0,0-1.57,2.22,11.43,11.43,0,0,0-1,2.29,7.6,7.6,0,0,0-.33,2.1,3.08,3.08,0,0,0,.4,1.57,1.31,1.31,0,0,0,1.22.7,3.54,3.54,0,0,0,2-.72,15.27,15.27,0,0,0,1.76-1.42,5.07,5.07,0,0,1-1.39-3.88,8.53,8.53,0,0,1,.26-2,9.53,9.53,0,0,1,.78-2.19,6.18,6.18,0,0,1,1.31-1.76,2.57,2.57,0,0,1,1.79-.72,1.72,1.72,0,0,1,1.13.35,2.34,2.34,0,0,1,.68.87,4.19,4.19,0,0,1,.33,1.11,8.58,8.58,0,0,1,.08,1.07,8.88,8.88,0,0,1-.67,3.45,18.61,18.61,0,0,1-1.59,3h.13a3.83,3.83,0,0,0,2.16-.8,16.28,16.28,0,0,0,2.68-2.55.85.85,0,0,1,.65-.26.65.65,0,0,1,.61.28,1.07,1.07,0,0,1,.18.59.77.77,0,0,1-.22.56,24.36,24.36,0,0,1-2.9,2.71,5.14,5.14,0,0,1-3.21,1.18,3.9,3.9,0,0,1-1.26-.18,13.05,13.05,0,0,1-2.44,2.07A5.15,5.15,0,0,1,530.7,320.79Zm6.54-12.65a1.28,1.28,0,0,0-1,.54,5.24,5.24,0,0,0-.79,1.31,9.26,9.26,0,0,0-.5,1.62,5.86,5.86,0,0,0,0,2.72,2.36,2.36,0,0,0,.63,1.27,16.93,16.93,0,0,0,1.53-2.79,7.56,7.56,0,0,0,.65-2.93,4.75,4.75,0,0,0,0-.48c0-.2,0-.4-.06-.58a1.41,1.41,0,0,0-.16-.49A.32.32,0,0,0,537.24,308.14Z" fill="#2f2e41"/><path d="M555.56,320.87a3.17,3.17,0,0,1-2.8-1.2,4.73,4.73,0,0,1-.82-2.76,10,10,0,0,1,.61-3.23,14.56,14.56,0,0,1,1.65-3.36,11.18,11.18,0,0,1,2.42-2.64,4.69,4.69,0,0,1,2.9-1.07,2.74,2.74,0,0,1,1.84.61,2.11,2.11,0,0,1,.69,1.66c0,1.05-.67,2.13-2,3.25a14.61,14.61,0,0,1-6,2.59,10,10,0,0,0-.27,1.16,8.05,8.05,0,0,0-.08,1.11,2.61,2.61,0,0,0,.43,1.59,1.61,1.61,0,0,0,1.4.59,8.15,8.15,0,0,0,3.9-1.54,25.88,25.88,0,0,0,5.26-4.69.85.85,0,0,1,.65-.26.64.64,0,0,1,.61.3,1.11,1.11,0,0,1,.18.57,1,1,0,0,1-.07.3.58.58,0,0,1-.15.26,27.51,27.51,0,0,1-5.48,4.95A9,9,0,0,1,555.56,320.87Zm4-12.56a2.81,2.81,0,0,0-1.46.44,6.17,6.17,0,0,0-1.33,1.09,12.6,12.6,0,0,0-1.13,1.44,13.43,13.43,0,0,0-.87,1.48,14.4,14.4,0,0,0,2.64-.91,9,9,0,0,0,1.72-1.07,4.74,4.74,0,0,0,1-1,1.77,1.77,0,0,0,.3-.89.42.42,0,0,0-.3-.42A1.73,1.73,0,0,0,559.52,308.31Z" fill="#2f2e41"/><path d="M570.69,320.83a2,2,0,0,1-1.51-.61,2.06,2.06,0,0,1-.58-1.48,3.93,3.93,0,0,1,.21-1.18,12.37,12.37,0,0,1,.55-1.35,12.94,12.94,0,0,1,.72-1.33c.26-.42.49-.81.7-1.16a1.67,1.67,0,0,1,.19-.37l.46-.76c.18-.29.35-.6.52-.92s.32-.59.44-.83.12-.29.17-.43a1.15,1.15,0,0,0,.09-.44c0-.09-.1-.13-.3-.13h-.92a3,3,0,0,1-.81-.11,1.2,1.2,0,0,1-.63-.46l-1.94,2.36c-.71.87-1.43,1.7-2.16,2.48a.73.73,0,0,1-.61.27.77.77,0,0,1-.63-.24.92.92,0,0,1-.2-.59.81.81,0,0,1,.18-.53c.32-.37.67-.79,1.07-1.24l1.19-1.39,1.18-1.4,1-1.2q.82-1,1-1.29a3.59,3.59,0,0,1,.33-.41,1.27,1.27,0,0,1,.35-.26.72.72,0,0,1,.39-.13.76.76,0,0,1,.67.26.81.81,0,0,1,.2.52,1.45,1.45,0,0,1-.26.79c-.32.49-.42.78-.31.87s.21.07.44,0a5.37,5.37,0,0,1,.7,0,1.72,1.72,0,0,1,1.24.48,1.54,1.54,0,0,1,.5,1.18,3.19,3.19,0,0,1-.22,1.09,11.84,11.84,0,0,1-.54,1.28c-.22.45-.47.91-.74,1.38s-.53.9-.77,1.31c-.4.69-.8,1.4-1.19,2.11a3.8,3.8,0,0,0-.59,1.77.34.34,0,0,0,.39.39.75.75,0,0,0,.39-.13,24.33,24.33,0,0,0,2.31-2c.79-.77,1.51-1.53,2.18-2.29.32-.32.61-.63.88-.94s.51-.57.74-.8a.8.8,0,0,1,.61-.26.85.85,0,0,1,.59.26.74.74,0,0,1,.28.56.83.83,0,0,1-.26.61l-.66.7-1.28,1.4L575,317.78c-.5.52-1,1-1.51,1.48a12.82,12.82,0,0,1-1.46,1.18A2.47,2.47,0,0,1,570.69,320.83Z" fill="#2f2e41"/><path d="M583.25,320.83a2,2,0,0,1-1.5-.61,2,2,0,0,1-.59-1.48,3.93,3.93,0,0,1,.21-1.18,12.37,12.37,0,0,1,.55-1.35,12.94,12.94,0,0,1,.72-1.33c.26-.42.49-.81.7-1.16a1.67,1.67,0,0,1,.19-.37l.46-.76.53-.92c.17-.32.32-.59.43-.83s.12-.29.17-.43a1.15,1.15,0,0,0,.09-.44c0-.09-.1-.13-.3-.13H584a3,3,0,0,1-.81-.11,1.2,1.2,0,0,1-.63-.46l-1.94,2.36c-.71.87-1.43,1.7-2.16,2.48a.73.73,0,0,1-.61.27.77.77,0,0,1-.63-.24.92.92,0,0,1-.2-.59.81.81,0,0,1,.18-.53c.32-.37.67-.79,1.07-1.24l1.2-1.39,1.17-1.4,1-1.2q.83-1,1-1.29a3.59,3.59,0,0,1,.33-.41,1.45,1.45,0,0,1,.35-.26.72.72,0,0,1,.39-.13.78.78,0,0,1,.68.26.86.86,0,0,1,.19.52,1.38,1.38,0,0,1-.26.79c-.32.49-.42.78-.31.87s.21.07.44,0a5.48,5.48,0,0,1,.7,0,1.72,1.72,0,0,1,1.24.48,1.54,1.54,0,0,1,.5,1.18,3.41,3.41,0,0,1-.21,1.09c-.15.4-.33.83-.55,1.28s-.47.91-.74,1.38-.53.9-.76,1.31c-.41.69-.81,1.4-1.2,2.11a3.8,3.8,0,0,0-.59,1.77.34.34,0,0,0,.39.39.72.72,0,0,0,.39-.13,24.33,24.33,0,0,0,2.31-2c.79-.77,1.52-1.53,2.18-2.29.32-.32.61-.63.88-.94s.51-.57.74-.8a.81.81,0,0,1,.61-.26.85.85,0,0,1,.59.26.74.74,0,0,1,.28.56.83.83,0,0,1-.26.61l-.66.7-1.28,1.4-1.46,1.57c-.5.52-1,1-1.51,1.48a12.82,12.82,0,0,1-1.46,1.18A2.45,2.45,0,0,1,583.25,320.83Z" fill="#2f2e41"/><path d="M599.08,320.83a2.19,2.19,0,0,1-1.92-.87,3.4,3.4,0,0,1-.61-2,12.42,12.42,0,0,1-2.24,2,4.66,4.66,0,0,1-2.69.85,2.78,2.78,0,0,1-2.35-1,4.13,4.13,0,0,1-.79-2.56,8.29,8.29,0,0,1,1-3.77,13.86,13.86,0,0,1,6.1-6.08,8.75,8.75,0,0,1,4-1,6.29,6.29,0,0,1,1.72.2,5.24,5.24,0,0,1,.81.28,1.64,1.64,0,0,1,.37.27.5.5,0,0,1,.2.39.6.6,0,0,1,0,.24.84.84,0,0,1-.08.19c-.09.24-.24.59-.46,1.07s-.48,1-.79,1.62-.64,1.22-1,1.89l-1.13,2a15.14,15.14,0,0,0-.64,1.94,6.45,6.45,0,0,0-.24,1.55,1.45,1.45,0,0,0,.22.8.7.7,0,0,0,.61.33,2.88,2.88,0,0,0,1.51-.81,25.41,25.41,0,0,0,2-1.85c.7-.7,1.36-1.39,2-2.07s1-1.17,1.31-1.46a.83.83,0,0,1,.35-.26.85.85,0,0,1,.3-.05.77.77,0,0,1,.59.28.92.92,0,0,1,.24.59.83.83,0,0,1-.26.61q-2.88,3.15-4.8,4.93C601,320.23,600,320.83,599.08,320.83Zm.44-12.73a7.16,7.16,0,0,0-3.43.89,11.6,11.6,0,0,0-3,2.27,12,12,0,0,0-2.12,3,6.79,6.79,0,0,0-.81,3.05,2.34,2.34,0,0,0,.35,1.28,1.16,1.16,0,0,0,1.05.55,3.26,3.26,0,0,0,1.75-.55,8.73,8.73,0,0,0,1.67-1.37,14.85,14.85,0,0,0,1.49-1.77c.45-.62.82-1.18,1.11-1.67v0a28.12,28.12,0,0,1,1.48-3.19c.55-1,1-1.83,1.35-2.44a3.06,3.06,0,0,0-.45-.06A3.7,3.7,0,0,0,599.52,308.1Z" fill="#2f2e41"/><path d="M609.72,320.61a.77.77,0,0,1-.87-.87,1,1,0,0,1,0-.31c0-.08.11-.24.22-.48.44-.78.9-1.67,1.38-2.66s.92-2,1.33-2.94.74-1.87,1-2.7a7,7,0,0,0,.39-1.94c0-.29-.06-.44-.17-.44a1.91,1.91,0,0,0-.92.44,7.34,7.34,0,0,0-.85.76c-.36.36-.77.8-1.22,1.31l-1.44,1.61c-.51.57-1,1.13-1.46,1.68a.83.83,0,0,1-.65.31.89.89,0,0,1-.62-.24.79.79,0,0,1-.26-.59.83.83,0,0,1,.26-.61l1.31-1.51c.5-.57,1-1.12,1.49-1.66l1.39-1.48a11.2,11.2,0,0,1,1-1,3.3,3.3,0,0,1,1.92-.74,1.62,1.62,0,0,1,1.44.72,2.62,2.62,0,0,1,.48,1.46,6.62,6.62,0,0,1-.4,2.09,18.05,18.05,0,0,1,3.25-3,5.93,5.93,0,0,1,3.43-1.17,2.27,2.27,0,0,1,1.52.5,1.66,1.66,0,0,1,.61,1.37,5.57,5.57,0,0,1-.21,1.44c-.15.52-.33,1.06-.53,1.59s-.41,1.05-.63,1.53l-.54,1.16c-.21.37-.41.78-.62,1.22s-.38.85-.54,1.26a11.31,11.31,0,0,0-.39,1.16,3.17,3.17,0,0,0-.16.89c0,.17.08.26.22.26a2.49,2.49,0,0,0,1.31-.54,16,16,0,0,0,1.72-1.44c.63-.6,1.27-1.26,1.94-2l2-2.13a.8.8,0,0,1,.61-.26.72.72,0,0,1,.63.26,1,1,0,0,1,.2.61,1,1,0,0,1-.07.3.58.58,0,0,1-.15.26c-.64.73-1.33,1.48-2,2.25s-1.46,1.48-2.18,2.14a15.44,15.44,0,0,1-2.12,1.61,3.61,3.61,0,0,1-1.85.63,1.64,1.64,0,0,1-1.44-.61,2.14,2.14,0,0,1-.44-1.26,6.41,6.41,0,0,1,.57-2.38c.38-.92.81-1.9,1.31-2.94.38-.82.76-1.68,1.15-2.6a5.83,5.83,0,0,0,.59-2.2c0-.17,0-.28-.11-.33a.67.67,0,0,0-.32-.06,3.5,3.5,0,0,0-1.51.35,7.49,7.49,0,0,0-1.52.93A12.75,12.75,0,0,0,616.7,311c-.49.52-1,1.06-1.39,1.61s-.81,1.08-1.2,1.66-.77,1.15-1.14,1.72-.7,1.11-1,1.64-.56,1-.76,1.35l-.7,1.26a.63.63,0,0,1-.37.29A1.76,1.76,0,0,1,609.72,320.61Z" fill="#2f2e41"/><path d="M628.61,320.79a2.78,2.78,0,0,1-2.34-1.05,3.93,3.93,0,0,1-.8-2.44,9,9,0,0,1,2-5.28,16,16,0,0,1,2.61-2.81,12.88,12.88,0,0,1,2.51-1.64,8.68,8.68,0,0,1,2.23-.74,10,10,0,0,1,1.72-.17c.26,0,.55,0,.87,0a1.37,1.37,0,0,1,.79.31c.61-1.37,1.2-2.72,1.78-4.06s1.11-2.56,1.57-3.67c.27-.63.51-1.25.72-1.85A9,9,0,0,1,643,296a1.11,1.11,0,0,1,.39-.43.83.83,0,0,1,.39-.09.79.79,0,0,1,.59.26.85.85,0,0,1,.24.57,1.48,1.48,0,0,1,0,.24,1.54,1.54,0,0,1-.09.24c-.18.52-.38,1.06-.61,1.61s-.5,1.14-.79,1.75l-.56,1.39q-.62,1.4-1.47,3.45t-2.33,5.1a36.55,36.55,0,0,0-2.07,5.15,12,12,0,0,0-.59,2.88c0,.17,0,.37,0,.59s.09.32.18.32a2.36,2.36,0,0,0,1.18-.61,19.39,19.39,0,0,0,1.7-1.52c.61-.62,1.24-1.28,1.89-2l1.86-2a1.24,1.24,0,0,1,.26-.2.77.77,0,0,1,.39-.11.74.74,0,0,1,.83.83.89.89,0,0,1-.26.65q-2.83,3.06-4.69,4.84c-1.23,1.2-2.27,1.79-3.12,1.79a1.46,1.46,0,0,1-.89-.26,2,2,0,0,1-.59-.63,3.06,3.06,0,0,1-.33-.83,3.81,3.81,0,0,1-.11-.85v-.44a2.1,2.1,0,0,1,0-.43c-.38.43-.79.86-1.22,1.26a10.22,10.22,0,0,1-1.42,1.11,7.94,7.94,0,0,1-1.55.81A4.47,4.47,0,0,1,628.61,320.79Zm8.94-12.35h-.37a1.06,1.06,0,0,1-.33,0l-.15,0a.26.26,0,0,0-.11,0,7.8,7.8,0,0,0-1.42.17,7.53,7.53,0,0,0-1.85.68,11.15,11.15,0,0,0-2.14,1.44,14.49,14.49,0,0,0-2.27,2.42,9.72,9.72,0,0,0-1.31,2.31,5.48,5.48,0,0,0-.43,1.87,2.2,2.2,0,0,0,.37,1.29,1.21,1.21,0,0,0,1.07.55,3.55,3.55,0,0,0,1.57-.4,7.75,7.75,0,0,0,1.48-1,11.14,11.14,0,0,0,1.29-1.28,14.31,14.31,0,0,0,1-1.31,30.14,30.14,0,0,0,1.68-2.69c.5-.91,1-1.81,1.37-2.68Z" fill="#2f2e41"/><path d="M644.09,321.18a5.9,5.9,0,0,1-3.08-.83,8.32,8.32,0,0,1-2.33-2.09.71.71,0,0,1-.15-.22.82.82,0,0,1-.07-.39.93.93,0,0,1,.31-.66q1.08-1,2.16-2.13t1.89-2.1c.76-.9,1.51-1.87,2.25-2.9s1.4-2,2-2.9l.48-.59a1,1,0,0,1,.79-.37.7.7,0,0,1,.57.29,1,1,0,0,1,.21.58.9.9,0,0,1-.21.51l-.44.58a2.31,2.31,0,0,0-.17.77c0,.3,0,.64,0,1,0,1,0,1.94.13,2.84l.09,1.24c0,.42,0,.84,0,1.24s0,1-.06,1.55a6.87,6.87,0,0,1-.29,1.46c.47-.32,1-.69,1.49-1.11s1-.86,1.52-1.31,1-.91,1.44-1.37.89-.92,1.27-1.35a.81.81,0,0,1,.61-.26.72.72,0,0,1,.63.26.91.91,0,0,1,.2.56.82.82,0,0,1-.22.61c-.7.79-1.48,1.6-2.33,2.45a23.65,23.65,0,0,1-2.73,2.29,16.11,16.11,0,0,1-2.94,1.67A7.42,7.42,0,0,1,644.09,321.18Zm-.22-7.07q-1.44,1.71-3.4,3.67a5.71,5.71,0,0,0,1.66,1.24,4.88,4.88,0,0,0,2.13.41,2,2,0,0,0,2-1.22,7.73,7.73,0,0,0,.52-3c0-.49,0-1,0-1.46s-.07-.95-.13-1.42c0-.11,0-.28,0-.5s0-.41-.05-.59,0-.3,0-.39,0-.07,0,0c-.35.5-.74,1-1.18,1.53S644.39,313.47,643.87,314.11Z" fill="#2f2e41"/><path d="M490.05,359.13a.82.82,0,0,1-.61-.27.8.8,0,0,1-.26-.61.75.75,0,0,1,.26-.59.87.87,0,0,1,.61-.24h12.17a.74.74,0,0,1,.83.83.85.85,0,0,1-.24.61.76.76,0,0,1-.59.27Z" fill="#2f2e41"/><path d="M517.44,370.38a3,3,0,0,1-2.6-1.11,4.6,4.6,0,0,1-.8-2.77,10.47,10.47,0,0,1,1.17-4.52,15.26,15.26,0,0,1,3.19-4.34,4.64,4.64,0,0,1,3.09-1.44,2.26,2.26,0,0,1,2,.9,3.84,3.84,0,0,1,.61,2.24,3.69,3.69,0,0,1-.15,1,.72.72,0,0,1-.77.52.85.85,0,0,1-.63-.24.81.81,0,0,1-.24-.59v-.3a.62.62,0,0,1,0-.27.25.25,0,0,1,0-.13.39.39,0,0,0,0-.13,2.07,2.07,0,0,0-.2-.89.72.72,0,0,0-.72-.42,2.81,2.81,0,0,0-1.87,1,13.4,13.4,0,0,0-2.92,3.92,8.75,8.75,0,0,0-1,3.67c0,1.45.61,2.18,1.83,2.18a7.32,7.32,0,0,0,4.56-1.77,32.75,32.75,0,0,0,4.56-4.47.76.76,0,0,1,.57-.26.81.81,0,0,1,.61.28.89.89,0,0,1,.26.59.8.8,0,0,1-.07.31.71.71,0,0,1-.15.26c-.84.9-1.67,1.76-2.49,2.57a23.21,23.21,0,0,1-2.48,2.16,12.07,12.07,0,0,1-2.62,1.48A7.55,7.55,0,0,1,517.44,370.38Z" fill="#2f2e41"/><path d="M529.52,370.33a1.94,1.94,0,0,1-1.09-.28,2.23,2.23,0,0,1-.7-.7,3.05,3.05,0,0,1-.39-.94,4.06,4.06,0,0,1-.13-1,11.86,11.86,0,0,1,.15-1.92,15,15,0,0,1,.41-1.79.68.68,0,0,1-.52.17.85.85,0,0,1-.63-.23.81.81,0,0,1-.24-.59.74.74,0,0,1,.22-.57c.2-.2.54-.59,1-1.16s1-1.28,1.72-2.15q1.32-3.45,2.32-5.89c.66-1.63,1.25-3,1.76-4.1s.92-2,1.24-2.6.56-1.07.7-1.33a8.93,8.93,0,0,1,2.31-3,3.42,3.42,0,0,1,1.75-.69,1.49,1.49,0,0,1,1.42.72,3,3,0,0,1,.41,1.5,4.75,4.75,0,0,1-.11,1,3.35,3.35,0,0,1-.37,1,31.37,31.37,0,0,1-1.77,3.08q-1.15,1.8-2.55,3.77t-2.85,3.92q-1.47,2-2.73,3.54c-.2.52-.42,1.1-.65,1.72s-.45,1.27-.64,1.94-.35,1.32-.48,1.94a8.52,8.52,0,0,0-.19,1.72,3,3,0,0,0,.11.9c.07.25.28.37.63.37a1.68,1.68,0,0,0,.85-.39,13.44,13.44,0,0,0,1.2-1c.43-.42.89-.89,1.35-1.39s.92-1,1.35-1.51l.92-1c.29-.32.55-.6.78-.83a1,1,0,0,1,.66-.31.71.71,0,0,1,.63.29,1,1,0,0,1,.2.59.87.87,0,0,1-.26.61,9.23,9.23,0,0,0-.72.78c-.25.29-.54.61-.86,1l-1.54,1.7a21.88,21.88,0,0,1-1.62,1.59,11.44,11.44,0,0,1-1.59,1.2A2.86,2.86,0,0,1,529.52,370.33Zm9.85-27.12a1.74,1.74,0,0,0-1,.61,10.8,10.8,0,0,0-1.55,2.22c-.66,1.19-1.31,2.52-1.94,4s-1.21,2.86-1.76,4.23c.64-.87,1.27-1.74,1.9-2.62s1.2-1.71,1.74-2.53,1-1.57,1.44-2.29.76-1.33,1-1.85a3,3,0,0,0,.31-1.22,1.82,1.82,0,0,0,0-.37C539.48,343.26,539.43,343.21,539.37,343.21Z" fill="#2f2e41"/><path d="M538.81,370.38a3.14,3.14,0,0,1-2.79-1.2,4.7,4.7,0,0,1-.83-2.77,10,10,0,0,1,.61-3.23,15,15,0,0,1,1.65-3.36,11.4,11.4,0,0,1,2.43-2.64,4.64,4.64,0,0,1,2.9-1.06,2.68,2.68,0,0,1,1.83.61,2.09,2.09,0,0,1,.69,1.65c0,1.05-.67,2.13-2,3.25a14.55,14.55,0,0,1-6,2.6,9.89,9.89,0,0,0-.27,1.15,8.32,8.32,0,0,0-.08,1.12,2.65,2.65,0,0,0,.43,1.59,1.64,1.64,0,0,0,1.4.59,8.18,8.18,0,0,0,3.9-1.55,25.32,25.32,0,0,0,5.26-4.69.85.85,0,0,1,.65-.26.64.64,0,0,1,.61.3,1.17,1.17,0,0,1,.18.57.8.8,0,0,1-.07.31.71.71,0,0,1-.15.26,28.4,28.4,0,0,1-5.47,4.95A9.14,9.14,0,0,1,538.81,370.38Zm4-12.56a2.8,2.8,0,0,0-1.47.43,6.76,6.76,0,0,0-1.33,1.09,12.6,12.6,0,0,0-1.13,1.44,14.42,14.42,0,0,0-.87,1.48,13.69,13.69,0,0,0,2.64-.91,9,9,0,0,0,1.72-1.07,4.12,4.12,0,0,0,1-1,1.77,1.77,0,0,0,.3-.89.41.41,0,0,0-.3-.41A1.43,1.43,0,0,0,542.78,357.82Z" fill="#2f2e41"/><path d="M557.21,370.33a2.19,2.19,0,0,1-1.92-.87,3.3,3.3,0,0,1-.61-2,12,12,0,0,1-2.24,2,4.66,4.66,0,0,1-2.69.85,2.78,2.78,0,0,1-2.35-1,4,4,0,0,1-.79-2.55,8.44,8.44,0,0,1,1-3.78,14,14,0,0,1,6.11-6.08,8.73,8.73,0,0,1,4-1,6.34,6.34,0,0,1,1.72.19,4,4,0,0,1,.81.29,1.57,1.57,0,0,1,.37.26.52.52,0,0,1,.2.39.6.6,0,0,1,0,.24c0,.07,0,.14-.08.2-.09.23-.24.59-.46,1.07s-.48,1-.79,1.61-.64,1.23-1,1.9-.76,1.32-1.14,2a17.41,17.41,0,0,0-.63,1.94,6.52,6.52,0,0,0-.24,1.55,1.4,1.4,0,0,0,.22.81.71.71,0,0,0,.61.32,2.92,2.92,0,0,0,1.51-.8c.65-.54,1.33-1.16,2-1.86s1.36-1.39,2-2.07,1-1.17,1.31-1.46a1,1,0,0,1,.34-.26,1,1,0,0,1,.31-.05.75.75,0,0,1,.59.29.9.9,0,0,1,.24.59.87.87,0,0,1-.26.61q-2.88,3.13-4.8,4.93C559.16,369.74,558.08,370.33,557.21,370.33Zm.44-12.73a7.28,7.28,0,0,0-3.43.89,11.83,11.83,0,0,0-3,2.27,12.17,12.17,0,0,0-2.12,3,6.79,6.79,0,0,0-.81,3.05,2.37,2.37,0,0,0,.35,1.29,1.17,1.17,0,0,0,1.05.54,3.28,3.28,0,0,0,1.74-.54,8.85,8.85,0,0,0,1.68-1.38,15.58,15.58,0,0,0,1.49-1.76q.68-.94,1.11-1.68v0a28.79,28.79,0,0,1,1.48-3.18c.55-1,1-1.83,1.35-2.44a3.25,3.25,0,0,0-.45-.07Z" fill="#2f2e41"/><path d="M567.85,370.12a.78.78,0,0,1-.87-.88,1,1,0,0,1,0-.3c0-.09.11-.25.22-.48.44-.79.9-1.67,1.38-2.66s.92-2,1.33-2.95.74-1.87,1-2.7a7,7,0,0,0,.39-1.94c0-.29-.06-.44-.17-.44a1.91,1.91,0,0,0-.92.44,7.34,7.34,0,0,0-.85.76c-.36.37-.77.8-1.22,1.31s-.93,1.05-1.44,1.61-1,1.13-1.46,1.68a.81.81,0,0,1-.65.31.85.85,0,0,1-.61-.24.76.76,0,0,1-.27-.59.82.82,0,0,1,.27-.61c.37-.44.81-.94,1.3-1.5s1-1.12,1.49-1.66,1-1,1.39-1.49a12.76,12.76,0,0,1,1-1,3.3,3.3,0,0,1,1.92-.74,1.62,1.62,0,0,1,1.44.72,2.62,2.62,0,0,1,.48,1.46,6.1,6.1,0,0,1-.09.92,6.26,6.26,0,0,1-.31,1.18,17.7,17.7,0,0,1,3.25-3,5.88,5.88,0,0,1,3.43-1.18,2.32,2.32,0,0,1,1.52.5,1.68,1.68,0,0,1,.61,1.37,5.57,5.57,0,0,1-.21,1.44c-.15.53-.32,1.06-.53,1.6s-.41,1-.63,1.52-.4.87-.55,1.16-.4.78-.6,1.22-.39.86-.55,1.26a12.18,12.18,0,0,0-.39,1.16,3.58,3.58,0,0,0-.16.89c0,.18.08.27.22.27a2.52,2.52,0,0,0,1.31-.55,13.94,13.94,0,0,0,1.72-1.44c.63-.59,1.27-1.26,1.94-2l2-2.14a.8.8,0,0,1,.61-.26.72.72,0,0,1,.63.26,1,1,0,0,1,.2.61,1,1,0,0,1-.07.31.71.71,0,0,1-.15.26c-.64.72-1.32,1.47-2,2.24s-1.46,1.49-2.18,2.14a14.85,14.85,0,0,1-2.12,1.61,3.64,3.64,0,0,1-1.85.64,1.66,1.66,0,0,1-1.44-.61,2.17,2.17,0,0,1-.44-1.27,6.41,6.41,0,0,1,.57-2.38c.38-.91.81-1.89,1.31-2.94.38-.81.76-1.68,1.15-2.6a5.78,5.78,0,0,0,.59-2.2c0-.17,0-.28-.11-.32a.56.56,0,0,0-.32-.07,3.65,3.65,0,0,0-1.51.35,7.13,7.13,0,0,0-1.52.94,13.46,13.46,0,0,0-1.51,1.37c-.49.52-1,1.06-1.39,1.61s-.81,1.08-1.2,1.66-.77,1.16-1.14,1.73-.7,1.11-1,1.63-.56,1-.76,1.35l-.7,1.27a.61.61,0,0,1-.37.28A1.83,1.83,0,0,1,567.85,370.12Z" fill="#2f2e41"/><path d="M593.41,369.94a.85.85,0,0,1-.63-.24.79.79,0,0,1-.24-.59,1,1,0,0,1,.21-.56l1.57-2.12,2-2.68q1.49-2,2.64-3.47a23.63,23.63,0,0,0,1.59-2.25H599a.89.89,0,0,1-.87-.87.79.79,0,0,1,.26-.59.89.89,0,0,1,.61-.24h2.53l.65-1.39c.44-1.08.8-2,1.07-2.66s.51-1.26.7-1.68l.42-.92.17-.41a.84.84,0,0,1,.78-.52.92.92,0,0,1,.66.21.75.75,0,0,1,.22.53c0,.05,0,.15,0,.28a1,1,0,0,1-.11.33l-.55,1.35c-.25.61-.52,1.24-.8,1.9s-.56,1.26-.79,1.83-.39.95-.48,1.15h4a.87.87,0,0,1,.61.24.75.75,0,0,1,.26.59.8.8,0,0,1-.26.61.81.81,0,0,1-.61.26h-4.66c-.27.64-.53,1.36-.81,2.14s-.53,1.59-.76,2.4-.43,1.59-.59,2.33a9.45,9.45,0,0,0-.24,1.94,4,4,0,0,0,.17,1.14c.12.41.35.61.7.61a2.32,2.32,0,0,0,1.2-.57,18.77,18.77,0,0,0,1.7-1.46c.62-.59,1.28-1.26,2-2s1.33-1.44,1.94-2.14a.83.83,0,0,1,.61-.26.8.8,0,0,1,.61.26.77.77,0,0,1,.27.57.84.84,0,0,1-.27.61c-.37.46-.9,1.07-1.57,1.83s-1.38,1.49-2.13,2.2a18.76,18.76,0,0,1-2.29,1.85,3.74,3.74,0,0,1-2,.79,2,2,0,0,1-1.13-.31,2.45,2.45,0,0,1-.79-.78,3.69,3.69,0,0,1-.46-1.09,5.09,5.09,0,0,1-.15-1.22,13.47,13.47,0,0,1,.15-1.88,19.93,19.93,0,0,1,.5-2.31c-.43.53-.91,1.13-1.44,1.81s-1,1.35-1.52,2-.94,1.24-1.33,1.76-.68.89-.85,1.09a1.53,1.53,0,0,1-.48.46A.91.91,0,0,1,593.41,369.94Z" fill="#2f2e41"/><path d="M608.5,370.64a3.1,3.1,0,0,1-.55-.15.68.68,0,0,1-.45-.72,3.3,3.3,0,0,1,.3-1c.21-.47.39-.92.57-1.32l2-5.06-1.09,1.22a.79.79,0,0,1-.56.26.89.89,0,0,1-.63-.28.85.85,0,0,1-.29-.59.79.79,0,0,1,.26-.57c.85-1,1.63-1.93,2.36-2.73l2-2.24q2.22-5.42,3.81-8.81a50.71,50.71,0,0,1,2.46-4.8,5.44,5.44,0,0,1,1.6-1.61,2.9,2.9,0,0,1,1.46-.53,1.73,1.73,0,0,1,1.46.74,2.72,2.72,0,0,1,.54,1.62,3.11,3.11,0,0,1-.13,1,10.76,10.76,0,0,1-.74,1.57c-.35.64-.76,1.35-1.24,2.12s-1,1.55-1.61,2.35-1.22,1.56-1.86,2.29l-2.61,3-1.75,2-.52,1.49a21.31,21.31,0,0,1,2.46-2.36,7.35,7.35,0,0,1,1.94-1.22,5.11,5.11,0,0,1,1.35-.22,2.43,2.43,0,0,1,1.84.7,2.67,2.67,0,0,1,.65,1.88,6.09,6.09,0,0,1-.33,1.67,29.66,29.66,0,0,1-1.2,3.08c-.4.93-.78,1.85-1.13,2.77a6.44,6.44,0,0,0-.52,2.11c0,.24,0,.35.13.35a2.36,2.36,0,0,0,1.18-.61,17.89,17.89,0,0,0,1.7-1.52c.61-.61,1.25-1.28,1.91-2l1.88-2.05a.81.81,0,0,1,.61-.26.75.75,0,0,1,.59.26.87.87,0,0,1,.24.61.77.77,0,0,1-.22.57l-2.09,2.31q-1.1,1.17-2.16,2.16a16.34,16.34,0,0,1-2,1.61,3.23,3.23,0,0,1-1.7.63,1.46,1.46,0,0,1-1.31-.65,2.42,2.42,0,0,1-.43-1.35,7.29,7.29,0,0,1,.5-2.42,30.92,30.92,0,0,1,1.33-3.17,23.55,23.55,0,0,0,1-2.66,5.46,5.46,0,0,0,.31-1.39c0-.61-.26-.92-.79-.92a2.5,2.5,0,0,0-.87.18,5.4,5.4,0,0,0-1.52,1,20.8,20.8,0,0,0-2.21,2.16,28.21,28.21,0,0,0-2.4,3.12,24.37,24.37,0,0,0-2.11,3.88l-.26.78c-.15.41-.32.8-.5,1.18S608.76,370.64,608.5,370.64Zm13.26-27.22c-.47,0-1,.45-1.62,1.36a30.22,30.22,0,0,0-1.81,3.25c-.71,1.43-1.53,3.26-2.46,5.47.58-.67,1.12-1.29,1.61-1.88s.95-1.16,1.36-1.74a33.92,33.92,0,0,0,2.2-3.32,12.38,12.38,0,0,0,.94-1.91,2.12,2.12,0,0,0,.08-.57,1.67,1.67,0,0,0-.06-.44A.26.26,0,0,0,621.76,343.42Z" fill="#2f2e41"/><path d="M627.82,370.38a3.14,3.14,0,0,1-2.79-1.2,4.77,4.77,0,0,1-.83-2.77,10,10,0,0,1,.61-3.23,14.6,14.6,0,0,1,1.66-3.36,11.37,11.37,0,0,1,2.42-2.64,4.64,4.64,0,0,1,2.9-1.06,2.66,2.66,0,0,1,1.83.61,2.06,2.06,0,0,1,.7,1.65c0,1.05-.68,2.13-2,3.25a14.55,14.55,0,0,1-6,2.6,9.75,9.75,0,0,0-.26,1.15,7,7,0,0,0-.09,1.12,2.65,2.65,0,0,0,.44,1.59,1.62,1.62,0,0,0,1.39.59,8.25,8.25,0,0,0,3.91-1.55,25.56,25.56,0,0,0,5.25-4.69.87.87,0,0,1,.66-.26.65.65,0,0,1,.61.3,1.26,1.26,0,0,1,.17.57,1,1,0,0,1-.06.31.89.89,0,0,1-.16.26,28.11,28.11,0,0,1-5.47,4.95A9.14,9.14,0,0,1,627.82,370.38Zm4-12.56a2.77,2.77,0,0,0-1.46.43,6.23,6.23,0,0,0-1.33,1.09,11.64,11.64,0,0,0-1.14,1.44,14.42,14.42,0,0,0-.87,1.48,13.22,13.22,0,0,0,2.64-.91,8.71,8.71,0,0,0,1.72-1.07,4.12,4.12,0,0,0,1-1,1.8,1.8,0,0,0,.31-.89.41.41,0,0,0-.31-.41A1.43,1.43,0,0,0,631.79,357.82Z" fill="#2f2e41"/><path d="M649.63,370.64a3.1,3.1,0,0,1-.55-.15.69.69,0,0,1-.46-.72,2.37,2.37,0,0,1,.27-.85l.61-1.46q.3-.84.54-1.44t.48-1.14c.16-.35.31-.72.46-1.11s.33-.88.57-1.46l-6.59,7.5,0,0a.77.77,0,0,1-.61.3.87.87,0,0,1-.63-.28.84.84,0,0,1-.28-.59.79.79,0,0,1,.26-.57c.17-.17.54-.57,1.09-1.2s1.26-1.42,2.11-2.4,1.85-2.1,3-3.4l3.64-4.21v.05q2.24-5.42,3.82-8.81a50.71,50.71,0,0,1,2.46-4.8,5.54,5.54,0,0,1,1.59-1.61,3,3,0,0,1,1.46-.53,1.74,1.74,0,0,1,1.47.74,2.72,2.72,0,0,1,.54,1.62,3.11,3.11,0,0,1-.13,1,10.76,10.76,0,0,1-.74,1.57c-.35.64-.77,1.34-1.27,2.1s-1,1.54-1.61,2.35-1.19,1.58-1.83,2.31l-2.62,3-1.74,2,.09-.08-.62,1.57a22.19,22.19,0,0,1,2.47-2.36,7.2,7.2,0,0,1,1.94-1.22,5,5,0,0,1,1.35-.22,2.39,2.39,0,0,1,1.83.7,2.63,2.63,0,0,1,.66,1.88,6.09,6.09,0,0,1-.33,1.67,32.17,32.17,0,0,1-1.2,3.08c-.41.93-.78,1.85-1.13,2.77a6.51,6.51,0,0,0-.53,2.11c0,.24,0,.35.13.35a2.28,2.28,0,0,0,1.18-.61,17.89,17.89,0,0,0,1.7-1.52q.91-.92,1.92-2l1.88-2.05a.8.8,0,0,1,.61-.26.75.75,0,0,1,.59.26.87.87,0,0,1,.24.61.81.81,0,0,1-.22.57q-1,1.13-2.1,2.31c-.72.78-1.44,1.5-2.15,2.16a17.11,17.11,0,0,1-2,1.61,3.23,3.23,0,0,1-1.7.63,1.46,1.46,0,0,1-1.31-.65,2.43,2.43,0,0,1-.44-1.35,7.55,7.55,0,0,1,.5-2.42c.34-1,.78-2,1.33-3.17a22.12,22.12,0,0,0,1-2.66,6,6,0,0,0,.31-1.39c0-.61-.27-.92-.79-.92a2.5,2.5,0,0,0-.87.18,5.55,5.55,0,0,0-1.53,1,20.8,20.8,0,0,0-2.2,2.16,28.21,28.21,0,0,0-2.4,3.12,24.37,24.37,0,0,0-2.11,3.88l-.27.78a9.49,9.49,0,0,1-.5,1.18C650.11,370.45,649.89,370.64,649.63,370.64Zm13.25-27.22c-.46,0-1,.45-1.61,1.36a28.56,28.56,0,0,0-1.81,3.25c-.71,1.43-1.53,3.26-2.46,5.47.58-.67,1.12-1.29,1.61-1.88s.94-1.16,1.35-1.74a32.17,32.17,0,0,0,2.2-3.32,11.49,11.49,0,0,0,.94-1.91,1.79,1.79,0,0,0,.09-.57,1.67,1.67,0,0,0-.06-.44C663.08,343.5,663,343.42,662.88,343.42Z" fill="#2f2e41"/><path d="M668.73,370.29a3.12,3.12,0,0,1-1.51-.35,3,3,0,0,1-1-.91,4.22,4.22,0,0,1-.59-1.27,5.27,5.27,0,0,1-.2-1.44,9.74,9.74,0,0,1,.35-2.42,12.18,12.18,0,0,1,1.07-2.68,14,14,0,0,1,1.77-2.57,11.16,11.16,0,0,1,2.44-2.14,2.41,2.41,0,0,1,.33-.15.56.56,0,0,1,.24-.07.87.87,0,0,1,.61.26.83.83,0,0,1,.26.57.91.91,0,0,1-.39.74,10,10,0,0,0-2.1,1.85,14.8,14.8,0,0,0-1.57,2.23,11,11,0,0,0-1,2.29,7.47,7.47,0,0,0-.33,2.09,3.06,3.06,0,0,0,.4,1.57,1.29,1.29,0,0,0,1.22.7,3.54,3.54,0,0,0,2-.72,15.27,15.27,0,0,0,1.76-1.42,5.06,5.06,0,0,1-1.39-3.88,8.53,8.53,0,0,1,.26-2,9.46,9.46,0,0,1,.78-2.18,6.09,6.09,0,0,1,1.31-1.77,2.57,2.57,0,0,1,1.79-.72,1.77,1.77,0,0,1,1.13.35,2.34,2.34,0,0,1,.68.87,4.15,4.15,0,0,1,.33,1.12,8.43,8.43,0,0,1,.08,1.06,8.88,8.88,0,0,1-.67,3.45,18.71,18.71,0,0,1-1.59,3h.13a3.8,3.8,0,0,0,2.15-.81,15.89,15.89,0,0,0,2.69-2.55.85.85,0,0,1,.65-.26.65.65,0,0,1,.61.28,1.1,1.1,0,0,1,.18.59.81.81,0,0,1-.22.57,23.46,23.46,0,0,1-2.9,2.7,5.1,5.1,0,0,1-3.21,1.18,3.9,3.9,0,0,1-1.26-.18,13.49,13.49,0,0,1-2.44,2.08A5.22,5.22,0,0,1,668.73,370.29Zm6.54-12.65a1.27,1.27,0,0,0-1,.55,5.07,5.07,0,0,0-.79,1.31,8.38,8.38,0,0,0-.5,1.61,7.12,7.12,0,0,0-.17,1.46,7,7,0,0,0,.15,1.26,2.36,2.36,0,0,0,.63,1.27,16.16,16.16,0,0,0,1.53-2.79,7.51,7.51,0,0,0,.65-2.92c0-.12,0-.28,0-.48s0-.4-.06-.59a1.5,1.5,0,0,0-.16-.48A.33.33,0,0,0,675.27,357.64Z" fill="#2f2e41"/><path d="M690.32,370.33a1.47,1.47,0,0,1-.66-.13,3,3,0,0,1-.48-.3,3.84,3.84,0,0,1-.46-.61,2,2,0,0,1-.23-1.05,5.83,5.83,0,0,1,.23-1.5c.16-.6.36-1.2.59-1.81l-.89,1.06c-.31.37-.6.71-.9,1a15.29,15.29,0,0,1-2.52,2.2,4.79,4.79,0,0,1-2.49,1,2,2,0,0,1-1.18-.28,3.39,3.39,0,0,1-.61-.55,2.55,2.55,0,0,1-.35-1.44,13,13,0,0,1,1.18-4.4,1,1,0,0,1-.74.35.77.77,0,0,1-.63-.24.92.92,0,0,1-.2-.59.85.85,0,0,1,.26-.61q1.78-2,2.64-3.18a20.68,20.68,0,0,0,1.33-2.05l.39-.64a.72.72,0,0,1,.66-.28.66.66,0,0,1,.56.28,1,1,0,0,1,.22.64.77.77,0,0,1,0,.19,2,2,0,0,1-.13.33,3.81,3.81,0,0,1-.22.46,4.27,4.27,0,0,0-.26.59l-1.53,3.62c-.49,1.13-.91,2.2-1.26,3.2a7.79,7.79,0,0,0-.53,2.38c0,.35.13.52.4.52a3.19,3.19,0,0,0,1.83-.81,16.08,16.08,0,0,0,2.09-1.94c.61-.69,1.23-1.46,1.85-2.29s1.22-1.64,1.77-2.46,1.06-1.6,1.53-2.35.84-1.4,1.13-1.92a.8.8,0,0,1,.29-.37.67.67,0,0,1,.45-.16.77.77,0,0,1,.68.29.92.92,0,0,1,.2.5,1.38,1.38,0,0,1-.18.61c-.26.58-.52,1.21-.76,1.9s-.52,1.36-.81,2-.49,1.12-.76,1.77-.53,1.3-.77,1.94-.43,1.24-.58,1.79a4.93,4.93,0,0,0-.24,1.26c0,.24,0,.35.17.35a2.07,2.07,0,0,0,1.09-.52,16.87,16.87,0,0,0,1.61-1.4q.91-.87,2-2c.68-.74,1.37-1.5,2.07-2.29a.8.8,0,0,1,.61-.26.83.83,0,0,1,.61.26.79.79,0,0,1,.26.57.87.87,0,0,1-.26.61l-.68.67a11,11,0,0,0-.76.85c-.47.56-1,1.14-1.53,1.75a20.66,20.66,0,0,1-1.7,1.68,11.36,11.36,0,0,1-1.72,1.26A3.12,3.12,0,0,1,690.32,370.33Z" fill="#2f2e41"/><path d="M698.34,370.68a5.75,5.75,0,0,1-3.07-.83,8.22,8.22,0,0,1-2.34-2.09.94.94,0,0,1-.15-.22,1,1,0,0,1-.06-.39.91.91,0,0,1,.3-.65c.73-.7,1.45-1.41,2.16-2.14s1.34-1.43,1.9-2.1c.75-.9,1.5-1.86,2.24-2.89s1.41-2,2-2.91c.11-.14.27-.34.48-.58a1,1,0,0,1,.78-.38.7.7,0,0,1,.57.29,1,1,0,0,1,.22.59.92.92,0,0,1-.22.5c-.15.19-.29.38-.44.59a2.86,2.86,0,0,0-.17.76c0,.31,0,.65,0,1,0,1,0,1.93.14,2.83,0,.41,0,.82.08,1.24s0,.84,0,1.25,0,1-.07,1.54a7.08,7.08,0,0,1-.28,1.47c.46-.32,1-.69,1.48-1.12s1-.85,1.53-1.3,1-.91,1.44-1.38.88-.91,1.26-1.35a.83.83,0,0,1,.61-.26.72.72,0,0,1,.63.26.92.92,0,0,1,.2.57.82.82,0,0,1-.22.61c-.7.78-1.47,1.6-2.33,2.44a22.69,22.69,0,0,1-2.73,2.29,16.78,16.78,0,0,1-2.94,1.68A7.54,7.54,0,0,1,698.34,370.68Zm-.22-7.06q-1.44,1.69-3.4,3.66a5.54,5.54,0,0,0,1.66,1.24,4.89,4.89,0,0,0,2.14.42,2,2,0,0,0,2-1.22,7.77,7.77,0,0,0,.53-3.06c0-.49,0-1,0-1.46s-.07-.95-.13-1.41c0-.12,0-.29,0-.51s0-.41,0-.59,0-.3,0-.39,0-.07,0,.05c-.35.49-.74,1-1.18,1.52Z" fill="#2f2e41"/><path d="M710.77,370.38a3.14,3.14,0,0,1-2.79-1.2,4.77,4.77,0,0,1-.83-2.77,10,10,0,0,1,.61-3.23,14.6,14.6,0,0,1,1.66-3.36,11.37,11.37,0,0,1,2.42-2.64,4.64,4.64,0,0,1,2.9-1.06,2.66,2.66,0,0,1,1.83.61,2.06,2.06,0,0,1,.7,1.65c0,1.05-.68,2.13-2,3.25a14.55,14.55,0,0,1-6,2.6,9.75,9.75,0,0,0-.26,1.15,7,7,0,0,0-.09,1.12,2.65,2.65,0,0,0,.44,1.59,1.62,1.62,0,0,0,1.39.59,8.25,8.25,0,0,0,3.91-1.55,25.56,25.56,0,0,0,5.25-4.69.87.87,0,0,1,.66-.26.65.65,0,0,1,.61.3,1.26,1.26,0,0,1,.17.57,1,1,0,0,1-.06.31.89.89,0,0,1-.16.26,28.11,28.11,0,0,1-5.47,4.95A9.12,9.12,0,0,1,710.77,370.38Zm4-12.56a2.77,2.77,0,0,0-1.46.43,6.23,6.23,0,0,0-1.33,1.09,11.64,11.64,0,0,0-1.14,1.44,16.52,16.52,0,0,0-.87,1.48,13.22,13.22,0,0,0,2.64-.91,8.71,8.71,0,0,0,1.72-1.07,4.12,4.12,0,0,0,1-1,1.7,1.7,0,0,0,.31-.89.4.4,0,0,0-.31-.41A1.43,1.43,0,0,0,714.74,357.82Z" fill="#2f2e41"/><path d="M497.12,406.8a.85.85,0,0,1-.61-.26.83.83,0,0,1-.26-.61.74.74,0,0,1,.26-.59.87.87,0,0,1,.61-.24h12.17a.73.73,0,0,1,.83.83.89.89,0,0,1-.24.61.79.79,0,0,1-.59.26Z" fill="#2f2e41"/><path d="M520.37,431.31a2,2,0,0,1-1.86-.94,3.9,3.9,0,0,1-.59-2.11,7.26,7.26,0,0,1,.42-2.23,11.2,11.2,0,0,1,1.28-2.61,17.34,17.34,0,0,1,2.25-2.75,20.16,20.16,0,0,1,3.29-2.66l2.4-1.53.35-.7a9.61,9.61,0,0,1-2,1.51,4.89,4.89,0,0,1-2.4.63,2.66,2.66,0,0,1-2.24-1,3.64,3.64,0,0,1-.77-2.29,7.58,7.58,0,0,1,.74-3,13.39,13.39,0,0,1,2.14-3.27,16.32,16.32,0,0,1,2.49-2.36,12.78,12.78,0,0,1,2.33-1.42,8.85,8.85,0,0,1,2.07-.67,9.38,9.38,0,0,1,1.7-.18,6.6,6.6,0,0,1,1.38.13,2.59,2.59,0,0,1,.67.22c.38.2.57.41.57.61a.75.75,0,0,1,0,.26,1.65,1.65,0,0,1-.09.22L530.05,415c.61-.35,1.18-.69,1.7-1s1-.68,1.52-1,1-.77,1.49-1.22,1-1,1.61-1.6a.87.87,0,0,1,.61-.26.87.87,0,0,1,.59.26.78.78,0,0,1,.28.57.81.81,0,0,1-.26.61c-.64.67-1.25,1.27-1.83,1.79a23.59,23.59,0,0,1-1.87,1.5c-.67.48-1.41,1-2.21,1.47s-1.73,1-2.81,1.61q-1,2.35-1.83,4.25c-.55,1.27-1.08,2.41-1.57,3.42q-.44.89-1,1.92a14.63,14.63,0,0,1-1.16,1.94A7.74,7.74,0,0,1,522,430.7,2.46,2.46,0,0,1,520.37,431.31Zm3.57-6.63c.29-.58.57-1.18.83-1.81s.54-1.27.83-1.94l.74-1.7-.26.22a18.25,18.25,0,0,0-3.08,2.42,14.9,14.9,0,0,0-2,2.4,9.5,9.5,0,0,0-1.07,2.18,5.88,5.88,0,0,0-.33,1.76,2.58,2.58,0,0,0,.16.92.58.58,0,0,0,.59.43c.52,0,1.08-.45,1.67-1.37A29.89,29.89,0,0,0,523.94,424.68Zm8-19.28a7.07,7.07,0,0,0-1.41.16,6.79,6.79,0,0,0-1.75.61,13.77,13.77,0,0,0-2,1.24,12.28,12.28,0,0,0-2.15,2.09,10.74,10.74,0,0,0-1.86,2.79,6.16,6.16,0,0,0-.59,2.36,1.74,1.74,0,0,0,.35,1.15,1.17,1.17,0,0,0,1,.42,3.22,3.22,0,0,0,.87-.13,6.77,6.77,0,0,0,2.32-1.64,22.09,22.09,0,0,0,2.24-2.72,33.61,33.61,0,0,0,2-3.23c.61-1.13,1.13-2.17,1.57-3.1Z" fill="#2f2e41"/><path d="M538.86,418a3.12,3.12,0,0,1-1.51-.34,3,3,0,0,1-1-.92,4.22,4.22,0,0,1-.59-1.27,5.27,5.27,0,0,1-.2-1.44,9.8,9.8,0,0,1,.35-2.42,12.38,12.38,0,0,1,1.07-2.68,14,14,0,0,1,1.77-2.57,11.16,11.16,0,0,1,2.44-2.14l.33-.15a.75.75,0,0,1,.24-.07.84.84,0,0,1,.61.27.79.79,0,0,1,.26.56.91.91,0,0,1-.39.74,10.37,10.37,0,0,0-2.1,1.86,14.24,14.24,0,0,0-1.57,2.22,11.19,11.19,0,0,0-1,2.29,7.59,7.59,0,0,0-.33,2.09,3.09,3.09,0,0,0,.4,1.58,1.3,1.3,0,0,0,1.22.69,3.54,3.54,0,0,0,2-.72,16.4,16.4,0,0,0,1.76-1.41,5.09,5.09,0,0,1-1.39-3.89,8.6,8.6,0,0,1,.26-2,9.63,9.63,0,0,1,.78-2.18,6.09,6.09,0,0,1,1.31-1.77,2.61,2.61,0,0,1,1.79-.72,1.77,1.77,0,0,1,1.13.35,2.46,2.46,0,0,1,.68.88,4.08,4.08,0,0,1,.33,1.11,8.58,8.58,0,0,1,.08,1.07,8.79,8.79,0,0,1-.67,3.44,18.3,18.3,0,0,1-1.59,3h.13a3.91,3.91,0,0,0,2.16-.8,16,16,0,0,0,2.68-2.56.89.89,0,0,1,.65-.26.67.67,0,0,1,.61.28,1.1,1.1,0,0,1,.18.59.78.78,0,0,1-.22.57,23.46,23.46,0,0,1-2.9,2.7,5.08,5.08,0,0,1-3.21,1.18,3.92,3.92,0,0,1-1.26-.17,13.85,13.85,0,0,1-2.44,2.07A5.14,5.14,0,0,1,538.86,418Zm6.54-12.64a1.28,1.28,0,0,0-1,.54,5.07,5.07,0,0,0-.79,1.31,9.42,9.42,0,0,0-.5,1.61,7.19,7.19,0,0,0-.17,1.46,7.09,7.09,0,0,0,.15,1.27,2.36,2.36,0,0,0,.63,1.26,16.16,16.16,0,0,0,1.53-2.79,7.48,7.48,0,0,0,.65-2.92,4.55,4.55,0,0,0,0-.48c0-.2,0-.4-.06-.59a1.29,1.29,0,0,0-.16-.48A.32.32,0,0,0,545.4,405.32Z" fill="#2f2e41"/><path d="M564.37,418.36a5.76,5.76,0,0,1-2.66-.64,8.3,8.3,0,0,1-2.18-1.54l-1.22,1.22a.91.91,0,0,1-.92.3.63.63,0,0,1-.46-.37,1.67,1.67,0,0,1-.11-.59.75.75,0,0,1,.07-.24.7.7,0,0,1,.15-.24l1.51-1.59,1.68-1.79c.55-.59,1.07-1.16,1.54-1.7s.87-1,1.16-1.28c.81-.93,1.61-1.92,2.38-2.95s1.44-2,2-2.81c.11-.15.27-.34.48-.59a1,1,0,0,1,.78-.37.69.69,0,0,1,.57.28,1,1,0,0,1,.22.59.79.79,0,0,1-.22.48,6.44,6.44,0,0,0-.44.61,1.48,1.48,0,0,0-.2.74c0,.32,0,.67,0,1.05,0,1,0,1.93.13,2.83l.09,1.25c0,.42,0,.83,0,1.24s0,1-.07,1.55a6.86,6.86,0,0,1-.28,1.46c.46-.32,1-.69,1.48-1.11s1-.86,1.53-1.31,1-.91,1.43-1.37.89-.92,1.27-1.36a.85.85,0,0,1,.61-.26.75.75,0,0,1,.63.26,1,1,0,0,1,.2.57.8.8,0,0,1-.22.61c-.7.79-1.48,1.6-2.33,2.44A21.79,21.79,0,0,1,570.3,416a15.6,15.6,0,0,1-2.94,1.68A7.42,7.42,0,0,1,564.37,418.36Zm.17-1.75a2,2,0,0,0,2-1.22,7.73,7.73,0,0,0,.52-3.05c0-.5,0-1,0-1.46s-.07-1-.13-1.42c0-.12,0-.28,0-.5s0-.42,0-.59,0-.31,0-.39,0-.08,0,0c-.38.52-.83,1.1-1.35,1.72s-1.21,1.42-2,2.38c-.29.32-.61.67-.94,1.05s-.88,1-1.64,1.78a6.15,6.15,0,0,0,1.68,1.2A4.62,4.62,0,0,0,564.54,416.61Z" fill="#2f2e41"/><path d="M574.57,418.31a3.11,3.11,0,0,1-.54-.15.67.67,0,0,1-.46-.72,3.1,3.1,0,0,1,.31-1l.56-1.33,2-5.06-1.09,1.22a.76.76,0,0,1-.57.26.87.87,0,0,1-.63-.28.84.84,0,0,1-.28-.59.79.79,0,0,1,.26-.57c.84-1,1.63-1.92,2.35-2.72s1.4-1.55,2-2.25q2.22-5.4,3.82-8.81a50.71,50.71,0,0,1,2.46-4.8,5.67,5.67,0,0,1,1.59-1.61,2.94,2.94,0,0,1,1.46-.52,1.7,1.7,0,0,1,1.46.74,2.61,2.61,0,0,1,.55,1.61,3.22,3.22,0,0,1-.13,1,12.57,12.57,0,0,1-.74,1.57c-.35.64-.77,1.34-1.24,2.11s-1,1.56-1.62,2.36-1.21,1.56-1.85,2.29l-2.62,3-1.74,2-.53,1.48a23.14,23.14,0,0,1,2.47-2.36,7.75,7.75,0,0,1,1.94-1.22,5,5,0,0,1,1.35-.21,2.4,2.4,0,0,1,1.83.69,2.63,2.63,0,0,1,.66,1.88,6.08,6.08,0,0,1-.33,1.68,32.21,32.21,0,0,1-1.2,3.07c-.41.93-.79,1.86-1.13,2.77a6.55,6.55,0,0,0-.53,2.12c0,.23,0,.35.13.35a2.41,2.41,0,0,0,1.18-.61,19.64,19.64,0,0,0,1.7-1.53q.91-.92,1.92-2c.67-.72,1.29-1.41,1.87-2.05a.87.87,0,0,1,.62-.26.77.77,0,0,1,.58.26.89.89,0,0,1,.24.61.77.77,0,0,1-.21.57q-1,1.14-2.1,2.31t-2.16,2.16a15.41,15.41,0,0,1-2,1.61,3.17,3.17,0,0,1-1.71.64,1.45,1.45,0,0,1-1.3-.66,2.38,2.38,0,0,1-.44-1.35,7.61,7.61,0,0,1,.5-2.42c.34-.94.78-2,1.33-3.16a22.79,22.79,0,0,0,1.05-2.66,5.92,5.92,0,0,0,.3-1.4c0-.61-.26-.91-.78-.91a2.47,2.47,0,0,0-.87.17,5.81,5.81,0,0,0-1.53,1,23,23,0,0,0-2.2,2.16,28.21,28.21,0,0,0-2.4,3.12,25.71,25.71,0,0,0-2.12,3.88l-.26.79a9.49,9.49,0,0,1-.5,1.18C575.06,418.12,574.84,418.31,574.57,418.31Zm13.26-27.21c-.46,0-1,.45-1.61,1.35a27.9,27.9,0,0,0-1.81,3.25q-1.06,2.16-2.46,5.47l1.61-1.87c.49-.58.94-1.17,1.35-1.75a35.21,35.21,0,0,0,2.2-3.31,11.1,11.1,0,0,0,.94-1.92,1.75,1.75,0,0,0,.09-.57,1.29,1.29,0,0,0-.07-.43C588,391.17,588,391.1,587.83,391.1Z" fill="#2f2e41"/><path d="M593.68,418a3.12,3.12,0,0,1-1.51-.34,3,3,0,0,1-1-.92,4.22,4.22,0,0,1-.59-1.27,5.27,5.27,0,0,1-.2-1.44,9.8,9.8,0,0,1,.35-2.42,12.38,12.38,0,0,1,1.07-2.68,14,14,0,0,1,1.77-2.57,11.4,11.4,0,0,1,2.44-2.14l.33-.15a.75.75,0,0,1,.24-.07.84.84,0,0,1,.61.27.79.79,0,0,1,.26.56.91.91,0,0,1-.39.74,10.37,10.37,0,0,0-2.1,1.86,14.24,14.24,0,0,0-1.57,2.22,11.19,11.19,0,0,0-1,2.29,7.59,7.59,0,0,0-.33,2.09,3.2,3.2,0,0,0,.4,1.58,1.3,1.3,0,0,0,1.22.69,3.54,3.54,0,0,0,2-.72,16.4,16.4,0,0,0,1.76-1.41,5.09,5.09,0,0,1-1.39-3.89,8.6,8.6,0,0,1,.26-2,9.63,9.63,0,0,1,.78-2.18,6.09,6.09,0,0,1,1.31-1.77,2.61,2.61,0,0,1,1.79-.72,1.77,1.77,0,0,1,1.13.35,2.46,2.46,0,0,1,.68.88,4.08,4.08,0,0,1,.33,1.11,7,7,0,0,1,.08,1.07,8.79,8.79,0,0,1-.67,3.44,18.3,18.3,0,0,1-1.59,3h.13a3.88,3.88,0,0,0,2.16-.8,16,16,0,0,0,2.68-2.56.89.89,0,0,1,.65-.26.67.67,0,0,1,.61.28,1.1,1.1,0,0,1,.18.59.78.78,0,0,1-.22.57,23.46,23.46,0,0,1-2.9,2.7,5.08,5.08,0,0,1-3.21,1.18A3.92,3.92,0,0,1,599,415a13.85,13.85,0,0,1-2.44,2.07A5.11,5.11,0,0,1,593.68,418Zm6.54-12.64a1.28,1.28,0,0,0-1,.54,5.07,5.07,0,0,0-.79,1.31,9.42,9.42,0,0,0-.5,1.61,8,8,0,0,0-.17,1.46,7.09,7.09,0,0,0,.15,1.27,2.36,2.36,0,0,0,.63,1.26,16.16,16.16,0,0,0,1.53-2.79,7.48,7.48,0,0,0,.65-2.92,4.55,4.55,0,0,0,0-.48c0-.2,0-.4-.06-.59a1.29,1.29,0,0,0-.16-.48A.31.31,0,0,0,600.22,405.32Z" fill="#2f2e41"/><path d="M600.57,429.87a.74.74,0,0,1-.83-.83,1.29,1.29,0,0,1,.09-.39q.82-1.87,1.94-4.45c.74-1.72,1.49-3.47,2.24-5.28l2.25-5.32q1.11-2.61,1.94-4.58l-2.05,2.49a1.07,1.07,0,0,1-.44,0,.77.77,0,0,1-.63-.24.89.89,0,0,1-.19-.59,1,1,0,0,1,.06-.3.77.77,0,0,1,.15-.26l5.37-6.37a.81.81,0,0,1,.61-.26c.58,0,.87.27.87.83a1.55,1.55,0,0,1-.09.35l-1.22,2.92a18,18,0,0,1,1.29-1.33,12.55,12.55,0,0,1,1.29-1.07,9.83,9.83,0,0,1,1.92-1.16,3.73,3.73,0,0,1,1.35-.32,2,2,0,0,1,1.83.93,4,4,0,0,1,.57,2.12,10.6,10.6,0,0,1-1,4.23,15.17,15.17,0,0,1-2.64,4.1,9.32,9.32,0,0,1-1.48,1.35c.35-.11.71-.25,1.09-.41a5.36,5.36,0,0,0,1-.59,14.27,14.27,0,0,0,2.72-2.36c.92-1,1.84-2,2.77-3a.87.87,0,0,1,.61-.26.73.73,0,0,1,.63.28,1,1,0,0,1,.2.59,1,1,0,0,1-.06.31.78.78,0,0,1-.16.26c-1,1.19-2,2.27-2.92,3.23a15.67,15.67,0,0,1-2.83,2.35,9.28,9.28,0,0,1-5.28,1.57,12.66,12.66,0,0,1-2.2-.19,8.53,8.53,0,0,1-1.73-.46,1,1,0,0,1-.39-.33.75.75,0,0,1-.17-.46.81.81,0,0,1,.28-.61.89.89,0,0,1,.59-.26.78.78,0,0,1,.33.07l.37.15a1.45,1.45,0,0,0,.48.09,5,5,0,0,0,2.83-.81,10.56,10.56,0,0,0,2-1.68,11.28,11.28,0,0,0,1.39-1.81,13.7,13.7,0,0,0,1-1.92,12.67,12.67,0,0,0,.61-1.83,7.1,7.1,0,0,0,.21-1.59,2.82,2.82,0,0,0-.15-.92.58.58,0,0,0-.59-.43,2.43,2.43,0,0,0-.83.21,7.17,7.17,0,0,0-1.39.92,20.28,20.28,0,0,0-1.83,1.7c-.61.64-1.22,1.33-1.81,2.07s-1.16,1.51-1.68,2.29a20.23,20.23,0,0,0-1.35,2.31v0l0,.09-1.68,4c-.56,1.35-1.12,2.66-1.68,3.92l-1.54,3.56c-.48,1.1-.9,2.06-1.25,2.88A.77.77,0,0,1,600.57,429.87Z" fill="#2f2e41"/><path d="M616.79,429.87A.74.74,0,0,1,616,429a1.29,1.29,0,0,1,.09-.39q.83-1.87,1.94-4.45c.74-1.72,1.49-3.47,2.25-5.28s1.5-3.57,2.24-5.32,1.39-3.27,1.94-4.58l-2,2.49a1,1,0,0,1-.43,0,.77.77,0,0,1-.63-.24.9.9,0,0,1-.2-.59.79.79,0,0,1,.07-.3.64.64,0,0,1,.15-.26l5.36-6.37a.83.83,0,0,1,.61-.26c.58,0,.87.27.87.83a1.34,1.34,0,0,1-.08.35l-1.22,2.92a16.08,16.08,0,0,1,1.28-1.33,12.55,12.55,0,0,1,1.29-1.07,10.46,10.46,0,0,1,1.92-1.16,3.73,3.73,0,0,1,1.35-.32,2,2,0,0,1,1.83.93,4,4,0,0,1,.57,2.12,10.58,10.58,0,0,1-1,4.23,15.67,15.67,0,0,1-2.64,4.1,9.38,9.38,0,0,1-1.49,1.35c.35-.11.71-.25,1.09-.41a5.36,5.36,0,0,0,1.05-.59,14.62,14.62,0,0,0,2.73-2.36l2.77-3a.83.83,0,0,1,.61-.26.73.73,0,0,1,.63.28.87.87,0,0,1,.13.9.64.64,0,0,1-.15.26q-1.53,1.79-2.93,3.23a15.67,15.67,0,0,1-2.83,2.35,9.28,9.28,0,0,1-5.28,1.57,12.74,12.74,0,0,1-2.2-.19,8.23,8.23,0,0,1-1.72-.46.87.87,0,0,1-.39-.33.77.77,0,0,1-.18-.46.81.81,0,0,1,.28-.61.89.89,0,0,1,.59-.26.72.72,0,0,1,.33.07l.37.15a1.49,1.49,0,0,0,.48.09,5,5,0,0,0,2.83-.81,10.26,10.26,0,0,0,2-1.68,10.79,10.79,0,0,0,1.4-1.81,13.6,13.6,0,0,0,1-1.92,11.55,11.55,0,0,0,.61-1.83,6.63,6.63,0,0,0,.22-1.59,2.82,2.82,0,0,0-.15-.92.59.59,0,0,0-.59-.43,2.38,2.38,0,0,0-.83.21,6.89,6.89,0,0,0-1.4.92,20.28,20.28,0,0,0-1.83,1.7c-.61.64-1.21,1.33-1.81,2.07s-1.15,1.51-1.68,2.29a23.7,23.7,0,0,0-1.35,2.31v0l0,.09q-.84,2-1.68,4c-.57,1.35-1.13,2.66-1.68,3.92l-1.55,3.56c-.48,1.1-.89,2.06-1.24,2.88A.79.79,0,0,1,616.79,429.87Z" fill="#2f2e41"/><path d="M639.64,418.05a1.5,1.5,0,0,1-1.41-.7,2.73,2.73,0,0,1-.42-1.44,8.19,8.19,0,0,1,.46-2.44,28.91,28.91,0,0,1,1.07-2.75l-.33.33-.24.24a.75.75,0,0,1-.56.26.73.73,0,0,1-.59-.28.92.92,0,0,1-.24-.59,1,1,0,0,1,0-.33,2.39,2.39,0,0,1,.26-.37l4.93-5.75a.94.94,0,0,1,.66-.35c.55,0,.82.23.82.7v.28a.61.61,0,0,1-.08.32q-.22.36-1,1.86c-.55,1-1.12,2.16-1.7,3.47-.41.93-.8,1.87-1.18,2.83a6.9,6.9,0,0,0-.57,2.44q0,.57.18.57a1.32,1.32,0,0,0,.5-.15,2.47,2.47,0,0,0,.63-.42c.64-.61,1.27-1.22,1.88-1.83l1.68-1.7q.76-.78,1.26-1.35l.72-.79a.91.91,0,0,1,.66-.26.73.73,0,0,1,.63.28,1,1,0,0,1,.2.55.75.75,0,0,1-.11.33c-.08.13-.14.24-.2.32-.2.24-.79.87-1.75,1.9s-2.23,2.29-3.83,3.77a4,4,0,0,1-1.2.79A3,3,0,0,1,639.64,418.05Zm7.68-18.4c0,.67-.17,1.1-.52,1.3a1.89,1.89,0,0,1-1,.31,1,1,0,0,1-.87-.39,1.69,1.69,0,0,1,.15-2,1.32,1.32,0,0,1,1-.46,1,1,0,0,1,.9.39A1.49,1.49,0,0,1,647.32,399.65Z" fill="#2f2e41"/><path d="M650.15,417.79a.77.77,0,0,1-.87-.87,1,1,0,0,1,.05-.31c0-.09.1-.24.21-.48.44-.78.9-1.67,1.38-2.66s.92-2,1.33-2.94.74-1.88,1-2.71a6.9,6.9,0,0,0,.39-1.94c0-.29,0-.43-.17-.43a1.91,1.91,0,0,0-.92.43,8.69,8.69,0,0,0-.85.77c-.36.36-.77.8-1.22,1.3L649,409.57c-.51.56-1,1.13-1.46,1.68a.82.82,0,0,1-.65.3.87.87,0,0,1-.61-.24.74.74,0,0,1-.26-.59.83.83,0,0,1,.26-.61l1.31-1.5c.49-.57,1-1.12,1.48-1.66s1-1,1.39-1.48a11.2,11.2,0,0,1,1-1,3.23,3.23,0,0,1,1.92-.74,1.62,1.62,0,0,1,1.44.72,2.59,2.59,0,0,1,.48,1.46,6,6,0,0,1-.09.91A7.05,7.05,0,0,1,655,408a17.73,17.73,0,0,1,3.25-3,5.92,5.92,0,0,1,3.42-1.18,2.36,2.36,0,0,1,1.53.5,1.72,1.72,0,0,1,.61,1.38,5.67,5.67,0,0,1-.22,1.44c-.15.52-.32,1.05-.53,1.59s-.41,1.05-.63,1.53-.4.86-.54,1.15-.41.79-.61,1.22-.39.86-.55,1.27a12,12,0,0,0-.39,1.15,3.62,3.62,0,0,0-.15.9c0,.17.07.26.21.26a2.44,2.44,0,0,0,1.31-.55,14,14,0,0,0,1.73-1.44c.62-.59,1.27-1.25,1.94-2l2-2.14a.85.85,0,0,1,.61-.26.75.75,0,0,1,.63.26,1,1,0,0,1,.2.61.8.8,0,0,1-.07.31.64.64,0,0,1-.15.26c-.64.73-1.32,1.48-2,2.25s-1.45,1.48-2.18,2.13a14.74,14.74,0,0,1-2.11,1.62,3.67,3.67,0,0,1-1.86.63,1.64,1.64,0,0,1-1.44-.61,2.15,2.15,0,0,1-.43-1.26,6.33,6.33,0,0,1,.56-2.38c.38-.92.82-1.9,1.31-2.95.38-.81.76-1.68,1.16-2.59a6.07,6.07,0,0,0,.59-2.2c0-.18,0-.29-.11-.33a.74.74,0,0,0-.33-.07,3.65,3.65,0,0,0-1.51.35,8.72,8.72,0,0,0-1.52.94,13.46,13.46,0,0,0-1.51,1.37c-.49.53-1,1.07-1.39,1.62s-.81,1.07-1.2,1.66-.77,1.15-1.13,1.72-.7,1.11-1,1.63-.56,1-.76,1.36l-.7,1.26a.58.58,0,0,1-.37.28A1.41,1.41,0,0,1,650.15,417.79Z" fill="#2f2e41"/><path d="M665.72,431.31a2,2,0,0,1-1.85-.94,3.9,3.9,0,0,1-.59-2.11,7.26,7.26,0,0,1,.42-2.23,11.2,11.2,0,0,1,1.28-2.61,17.34,17.34,0,0,1,2.25-2.75,20.16,20.16,0,0,1,3.29-2.66l2.4-1.53.35-.7a9.61,9.61,0,0,1-2,1.51,4.86,4.86,0,0,1-2.4.63,2.66,2.66,0,0,1-2.24-1,3.64,3.64,0,0,1-.77-2.29,7.58,7.58,0,0,1,.74-3,13.39,13.39,0,0,1,2.14-3.27,16.32,16.32,0,0,1,2.49-2.36,12.78,12.78,0,0,1,2.33-1.42,8.85,8.85,0,0,1,2.07-.67,9.38,9.38,0,0,1,1.7-.18,6.53,6.53,0,0,1,1.38.13,2.59,2.59,0,0,1,.67.22c.38.2.57.41.57.61a1.09,1.09,0,0,1,0,.26,1.65,1.65,0,0,1-.09.22L675.41,415c.61-.35,1.17-.69,1.7-1s1-.68,1.52-1,1-.77,1.49-1.22,1-1,1.61-1.6a.87.87,0,0,1,.61-.26.89.89,0,0,1,.59.26.78.78,0,0,1,.28.57.81.81,0,0,1-.26.61c-.64.67-1.25,1.27-1.83,1.79a23.59,23.59,0,0,1-1.87,1.5c-.67.48-1.41,1-2.21,1.47s-1.73,1-2.81,1.61q-1,2.35-1.83,4.25c-.55,1.27-1.08,2.41-1.57,3.42q-.44.89-1,1.92a14.63,14.63,0,0,1-1.16,1.94,7.74,7.74,0,0,1-1.37,1.51A2.48,2.48,0,0,1,665.72,431.31Zm3.58-6.63c.29-.58.57-1.18.83-1.81s.54-1.27.83-1.94l.74-1.7-.26.22a18.25,18.25,0,0,0-3.08,2.42,14.9,14.9,0,0,0-2,2.4,9.1,9.1,0,0,0-1.07,2.18,5.88,5.88,0,0,0-.33,1.76,2.82,2.82,0,0,0,.16.92.57.57,0,0,0,.58.43c.53,0,1.09-.45,1.68-1.37A29.89,29.89,0,0,0,669.3,424.68Zm8-19.28a7,7,0,0,0-1.41.16,6.79,6.79,0,0,0-1.75.61,13.26,13.26,0,0,0-2,1.24A12.28,12.28,0,0,0,670,409.5a10.74,10.74,0,0,0-1.86,2.79,6.16,6.16,0,0,0-.59,2.36,1.74,1.74,0,0,0,.35,1.15,1.19,1.19,0,0,0,1,.42,3.22,3.22,0,0,0,.87-.13,6.77,6.77,0,0,0,2.32-1.64,22.09,22.09,0,0,0,2.24-2.72,33.61,33.61,0,0,0,2-3.23c.61-1.13,1.13-2.17,1.57-3.1Z" fill="#2f2e41"/><path d="M500.24,450.92a.83.83,0,0,1-.61-.26.84.84,0,0,1-.27-.62.74.74,0,0,1,.27-.58.85.85,0,0,1,.61-.24H512.4a.73.73,0,0,1,.83.82.89.89,0,0,1-.24.62.77.77,0,0,1-.59.26Z" fill="#2f2e41"/><path d="M527.41,460.25a1.18,1.18,0,0,1-.35.87,1.22,1.22,0,0,1-.88.35,1.12,1.12,0,0,1-.82-.35,1.15,1.15,0,0,1-.35-.87,1.18,1.18,0,0,1,.35-.85,1.07,1.07,0,0,1,.82-.37,1.16,1.16,0,0,1,.88.37A1.22,1.22,0,0,1,527.41,460.25Z" fill="#2f2e41"/><path d="M534,460.25a1.18,1.18,0,0,1-.34.87,1.22,1.22,0,0,1-.88.35,1.16,1.16,0,0,1-.83-.35,1.18,1.18,0,0,1-.34-.87,1.21,1.21,0,0,1,.34-.85,1.1,1.1,0,0,1,.83-.37,1.16,1.16,0,0,1,.88.37A1.21,1.21,0,0,1,534,460.25Z" fill="#2f2e41"/><path d="M540.66,460.25a1.15,1.15,0,0,1-.35.87,1.18,1.18,0,0,1-.87.35,1.16,1.16,0,0,1-.83-.35,1.18,1.18,0,0,1-.35-.87,1.22,1.22,0,0,1,.35-.85,1.1,1.1,0,0,1,.83-.37,1.13,1.13,0,0,1,.87.37A1.18,1.18,0,0,1,540.66,460.25Z" fill="#2f2e41"/><path d="M669.07,264.75c0,.2-34.4.37-76.83.37s-76.84-.17-76.84-.37,34.39-.38,76.84-.38S669.07,264.54,669.07,264.75Z" fill="#5156be"/><path d="M696.73,311.21c0,.21-40.72.38-90.93.38s-90.94-.17-90.94-.38,40.71-.37,90.94-.37S696.73,311,696.73,311.21Z" fill="#5156be"/><path d="M730.57,361c0,.2-48.79.37-109,.37s-109-.17-109-.37,48.77-.37,109-.37S730.57,360.8,730.57,361Z" fill="#5156be"/><path d="M485.89,177.58c.17,0,.16,3.13,1.08,8.07.24,1.23.51,2.58.92,4s.87,2.92,1.39,4.5a62.14,62.14,0,0,0,4.55,9.76,64.05,64.05,0,0,0,6.3,8.74c1.13,1.22,2.16,2.41,3.26,3.4a40.42,40.42,0,0,0,3,2.75c3.87,3.22,6.61,4.74,6.53,4.88a12.64,12.64,0,0,1-1.94-1,20.63,20.63,0,0,1-2.17-1.4,32.92,32.92,0,0,1-2.75-2c-1-.79-2.07-1.67-3.14-2.71s-2.19-2.18-3.34-3.4a54.84,54.84,0,0,1-11-18.72c-.51-1.6-1-3.12-1.34-4.58s-.63-2.81-.84-4.06-.32-2.39-.43-3.39a24.09,24.09,0,0,1-.16-2.58A12.38,12.38,0,0,1,485.89,177.58Z" fill="#2f2e41"/><path d="M497.51,211.28a25.86,25.86,0,0,0,5.18-4.67,20.06,20.06,0,0,0,3.56-6.6,19.14,19.14,0,0,0,.71-9.09l0-.32.51.27a16.82,16.82,0,0,0-7,5.65,16.35,16.35,0,0,0-2.81,6.79,22.61,22.61,0,0,0,.08,6.85,6.67,6.67,0,0,1-.51-1.8,16.11,16.11,0,0,1-.09-5.13,16.55,16.55,0,0,1,2.77-7.1,17.16,17.16,0,0,1,7.23-5.94l.44-.19.07.46c0,.11,0,.22.05.34a19.31,19.31,0,0,1-.79,9.42,20.11,20.11,0,0,1-3.8,6.73,18.37,18.37,0,0,1-3.9,3.45,10.45,10.45,0,0,1-1.23.69C497.68,211.24,497.52,211.31,497.51,211.28Z" fill="#2f2e41"/><path d="M489.44,194.84s-.18.09-.55.2a12.43,12.43,0,0,1-1.62.38,20.8,20.8,0,0,1-6.13.18,23.77,23.77,0,0,1-8.67-2.76,23.34,23.34,0,0,1-4.4-3.15,24.5,24.5,0,0,1-2-2.07,4.56,4.56,0,0,1-.81-1.34,1.81,1.81,0,0,1,.27-1.74,2.55,2.55,0,0,1,1.49-.79,5.57,5.57,0,0,1,1.51-.09,23.71,23.71,0,0,1,15.76,6.51,20.86,20.86,0,0,1,3.83,4.79,12.86,12.86,0,0,1,.77,1.48,1.91,1.91,0,0,1,.21.54,21.67,21.67,0,0,1-1.22-1.86,23.25,23.25,0,0,0-3.94-4.56,24.73,24.73,0,0,0-7.57-4.63,23.65,23.65,0,0,0-5.08-1.33,24.89,24.89,0,0,0-2.77-.2,3.08,3.08,0,0,0-2.41.61c-.5.57-.05,1.46.53,2.14a22.92,22.92,0,0,0,1.92,2,23.06,23.06,0,0,0,12.64,5.91,22.09,22.09,0,0,0,6,.06C488.65,195,489.43,194.77,489.44,194.84Z" fill="#2f2e41"/><path d="M700.49,173.93a12.47,12.47,0,0,1,0,2.2,23.92,23.92,0,0,1-.16,2.57c-.11,1-.18,2.15-.43,3.4s-.45,2.62-.84,4.06-.83,3-1.34,4.57a59.22,59.22,0,0,1-4.56,9.91,59.94,59.94,0,0,1-6.43,8.82c-1.15,1.22-2.22,2.41-3.34,3.39a39.87,39.87,0,0,1-3.14,2.72c-1,.82-1.93,1.44-2.75,2a22.08,22.08,0,0,1-2.17,1.39,13.12,13.12,0,0,1-1.93,1c-.09-.14,2.65-1.67,6.52-4.88,1-.81,2-1.7,3-2.75s2.12-2.19,3.25-3.41a62.49,62.49,0,0,0,6.3-8.73,63.23,63.23,0,0,0,4.56-9.77c.51-1.57,1-3.06,1.38-4.49s.68-2.77.92-4C700.33,177.06,700.32,173.92,700.49,173.93Z" fill="#2f2e41"/><path d="M688.87,207.64s-.17,0-.46-.19a11.66,11.66,0,0,1-1.22-.7,17.6,17.6,0,0,1-3.91-3.45,20.05,20.05,0,0,1-3.8-6.72,19.35,19.35,0,0,1-.79-9.43l0-.33.07-.46.44.19a17.14,17.14,0,0,1,7.23,5.93,16.43,16.43,0,0,1,2.77,7.1,16.1,16.1,0,0,1-.09,5.13,6.4,6.4,0,0,1-.51,1.81,21.86,21.86,0,0,0,.08-6.85,16.39,16.39,0,0,0-2.81-6.8,16.81,16.81,0,0,0-7-5.64l.51-.27-.05.32a19.1,19.1,0,0,0,.71,9.08,20.4,20.4,0,0,0,3.56,6.61A26.27,26.27,0,0,0,688.87,207.64Z" fill="#2f2e41"/><path d="M696.94,191.2c0-.07.79.12,2.21.29a22.94,22.94,0,0,0,6-.06,23.93,23.93,0,0,0,8.41-2.83,23.23,23.23,0,0,0,4.24-3.09,26,26,0,0,0,1.91-2c.58-.68,1-1.58.54-2.15a3.16,3.16,0,0,0-2.42-.61,25.07,25.07,0,0,0-2.77.2,24.41,24.41,0,0,0-5.08,1.33,24.75,24.75,0,0,0-7.57,4.64,23.25,23.25,0,0,0-3.94,4.55c-.79,1.19-1.16,1.9-1.22,1.87a1.9,1.9,0,0,1,.21-.55,12.89,12.89,0,0,1,.77-1.47,20.71,20.71,0,0,1,3.83-4.79A22.93,22.93,0,0,1,717.84,180a6,6,0,0,1,1.51.08,2.51,2.51,0,0,1,1.49.8,1.76,1.76,0,0,1,.27,1.73,4.62,4.62,0,0,1-.81,1.35,24.44,24.44,0,0,1-2,2.07,23.34,23.34,0,0,1-4.4,3.15,23.68,23.68,0,0,1-8.67,2.75,20.46,20.46,0,0,1-6.13-.18,11,11,0,0,1-1.62-.38A1.77,1.77,0,0,1,696.94,191.2Z" fill="#2f2e41"/><path d="M782.66,516.16c0,.21-75.88,1.2-169.47,2.22s-169.49,1.67-169.5,1.47,75.87-1.2,169.49-2.22S782.65,516,782.66,516.16Z" fill="#5156be"/><path d="M682.06,410.35c0,.21-36.56.63-81.67,1s-81.68.41-81.68.21,36.56-.63,81.68-1S682.06,410.15,682.06,410.35Z" fill="#5156be"/><path d="M764.17,154.42c0,.21-75.43.37-168.46.37s-168.47-.16-168.47-.37,75.41-.37,168.47-.37S764.17,154.22,764.17,154.42Z" fill="#1a2e35"/><path d="M566.52,553.4c-.18-.08,1.61-4.32,4-9.46s4.49-9.24,4.68-9.15-1.61,4.32-4,9.46S566.71,553.49,566.52,553.4Z" fill="#5156be"/><path d="M616.62,567.76c-.13.17-3.86-2.56-8.35-6.07s-8-6.5-7.88-6.66,3.86,2.56,8.34,6.07S616.75,567.6,616.62,567.76Z" fill="#5156be"/><path d="M646.23,532.4c.15.14-3.51,4.4-8.18,9.51s-8.58,9.16-8.73,9,3.51-4.4,8.18-9.52S646.08,532.26,646.23,532.4Z" fill="#5156be"/><path d="M684.32,565.38c-.16.14-2.78-2.67-5.86-6.26s-5.44-6.62-5.28-6.75S676,555,679,558.64,684.47,565.25,684.32,565.38Z" fill="#5156be"/><path d="M722,537.28c0,.2-4.62,1.26-10.4,2.37s-10.51,1.85-10.55,1.65,4.62-1.26,10.41-2.37S722,537.08,722,537.28Z" fill="#5156be"/><path d="M746.21,559.05a13.3,13.3,0,0,1,.7-3.28,67.3,67.3,0,0,1,2.7-7.63,64.24,64.24,0,0,1,3.6-7.25,12.42,12.42,0,0,1,1.87-2.78,18.34,18.34,0,0,1-1.41,3c-.92,1.84-2.15,4.4-3.38,7.29s-2.2,5.56-2.88,7.5A16.84,16.84,0,0,1,746.21,559.05Z" fill="#5156be"/><path d="M541.57,574.36c-.07.19-3.38-.91-7.38-2.47s-7.19-3-7.12-3.17,3.38.92,7.39,2.48S541.65,574.17,541.57,574.36Z" fill="#5156be"/><path d="M476.75,133.38a1.19,1.19,0,0,1,.32,0l.95-.09,1.55-.12,2.08-.35c.78-.12,1.62-.42,2.56-.65s1.89-.68,2.94-1.07a29.58,29.58,0,0,0,6.47-4,27.25,27.25,0,0,0,5.91-7,26.64,26.64,0,0,0,2.36-21.48,26.4,26.4,0,0,0-17.07-17.07,26.58,26.58,0,0,0-21.48,2.35,27.33,27.33,0,0,0-7,5.91,30,30,0,0,0-4,6.47c-.39,1.06-.81,2-1.07,3s-.52,1.77-.64,2.56-.25,1.47-.35,2.08-.09,1.1-.12,1.54-.07.69-.09,1a1.23,1.23,0,0,1,0,.33s0-.11,0-.33,0-.57,0-1,0-.94,0-1.55.18-1.33.29-2.12.37-1.65.58-2.6.65-1.93,1-3a29.36,29.36,0,0,1,4-6.64A27.64,27.64,0,0,1,463,83.29a27.13,27.13,0,0,1,22-2.52,27.08,27.08,0,0,1,17.54,17.55,27.14,27.14,0,0,1,1,11.85,26.73,26.73,0,0,1-3.54,10.16,27.67,27.67,0,0,1-6.1,7.13,30,30,0,0,1-6.64,4c-1.08.37-2.07.78-3,1s-1.81.49-2.61.59l-2.11.29c-.62,0-1.14,0-1.56,0h-1A1.14,1.14,0,0,1,476.75,133.38Z" fill="#2f2e41"/><path d="M483.47,132.65a5.52,5.52,0,1,1-6.2-4.74A5.51,5.51,0,0,1,483.47,132.65Z" fill="#2f2e41"/><path d="M552.2,133.38a1.23,1.23,0,0,1,.33,0l1-.09,1.54-.12,2.08-.35c.79-.12,1.62-.42,2.56-.65s1.89-.68,3-1.07a29.58,29.58,0,0,0,6.47-4,27.44,27.44,0,0,0,5.91-7,26.58,26.58,0,0,0,2.35-21.48,26.4,26.4,0,0,0-17.07-17.07,26.58,26.58,0,0,0-21.48,2.35,27.27,27.27,0,0,0-7,5.91,30,30,0,0,0-4,6.47c-.38,1.06-.81,2-1.06,3s-.53,1.77-.65,2.56-.25,1.47-.35,2.08-.09,1.1-.12,1.54-.06.69-.09,1a1.23,1.23,0,0,1-.05.33,1.19,1.19,0,0,1,0-.33c0-.26,0-.57,0-1s0-.94.05-1.55.18-1.33.29-2.12a25.88,25.88,0,0,1,.59-2.6c.24-1,.65-1.93,1-3a29.73,29.73,0,0,1,4-6.64,27.69,27.69,0,0,1,7.13-6.11,27.1,27.1,0,0,1,22-2.52A27.07,27.07,0,0,1,578,98.32a27.1,27.1,0,0,1-2.52,22,27.69,27.69,0,0,1-6.11,7.13,29.73,29.73,0,0,1-6.64,4c-1.08.37-2.06.78-3,1s-1.81.49-2.61.59l-2.11.29c-.61,0-1.14,0-1.56,0h-1A1.19,1.19,0,0,1,552.2,133.38Z" fill="#2f2e41"/><path d="M556.64,133.64a5.52,5.52,0,1,1-6.2-4.75A5.52,5.52,0,0,1,556.64,133.64Z" fill="#2f2e41"/><path d="M626.76,133.38a1.19,1.19,0,0,1,.32,0l.95-.09,1.54-.12,2.09-.35c.78-.12,1.62-.42,2.55-.65s1.9-.68,2.95-1.07a29.58,29.58,0,0,0,6.47-4,27.44,27.44,0,0,0,5.91-7,26.64,26.64,0,0,0,2.36-21.48,26.39,26.39,0,0,0-17.08-17.07,26.6,26.6,0,0,0-21.48,2.35,27.44,27.44,0,0,0-7,5.91,30,30,0,0,0-4,6.47c-.39,1.06-.81,2-1.07,3s-.53,1.77-.64,2.56-.25,1.47-.35,2.08-.09,1.1-.13,1.54-.06.69-.08,1,0,.33-.06.33a1.19,1.19,0,0,1,0-.33c0-.26,0-.57,0-1s0-.94.06-1.55.18-1.33.28-2.12.38-1.65.59-2.6.65-1.93,1-3a29.36,29.36,0,0,1,4-6.64A27.47,27.47,0,0,1,613,83.29a27.13,27.13,0,0,1,22-2.52,27.08,27.08,0,0,1,17.54,17.55,27.1,27.1,0,0,1-2.52,22,27.67,27.67,0,0,1-6.1,7.13,30,30,0,0,1-6.65,4c-1.07.37-2.06.78-3,1s-1.8.49-2.6.59l-2.11.29c-.62,0-1.14,0-1.56,0h-1A1.14,1.14,0,0,1,626.76,133.38Z" fill="#2f2e41"/><path d="M632.23,133.64a5.52,5.52,0,1,1-6.2-4.75A5.53,5.53,0,0,1,632.23,133.64Z" fill="#2f2e41"/><path d="M702.61,133.38a1.19,1.19,0,0,1,.32,0l1-.09,1.55-.12,2.08-.35c.78-.12,1.62-.42,2.56-.65s1.89-.68,2.94-1.07a29.35,29.35,0,0,0,6.47-4,27.25,27.25,0,0,0,5.91-7,26.64,26.64,0,0,0,2.36-21.48,26.4,26.4,0,0,0-17.07-17.07,26.58,26.58,0,0,0-21.48,2.35,27.33,27.33,0,0,0-7,5.91,30,30,0,0,0-4,6.47c-.39,1.06-.81,2-1.07,3s-.52,1.77-.64,2.56-.25,1.47-.35,2.08-.09,1.1-.12,1.54-.07.69-.09,1a1.23,1.23,0,0,1,0,.33s0-.11,0-.33,0-.57,0-1,0-.94,0-1.55.18-1.33.29-2.12.37-1.65.58-2.6.65-1.93,1-3a29.73,29.73,0,0,1,4-6.64,27.81,27.81,0,0,1,7.12-6.11,27.13,27.13,0,0,1,22-2.52,27.08,27.08,0,0,1,17.54,17.55,27.15,27.15,0,0,1-2.51,22,27.69,27.69,0,0,1-6.11,7.13,29.73,29.73,0,0,1-6.64,4c-1.08.37-2.07.78-3,1s-1.81.49-2.61.59l-2.11.29c-.61,0-1.14,0-1.56,0h-1A1.14,1.14,0,0,1,702.61,133.38Z" fill="#2f2e41"/><path d="M708.08,132.65a5.52,5.52,0,1,1-6.2-4.74A5.51,5.51,0,0,1,708.08,132.65Z" fill="#2f2e41"/><polygon points="94.38 436.36 105.44 417.86 114.75 444.5 94.38 436.36" fill="#5156be"/><polygon points="94.38 436.36 105.44 417.86 114.75 444.5 94.38 436.36" fill="#fff" opacity="0.5"/><path d="M285.26,341.45,272,318.85s1.88,14.95,2.67,25.34Z" fill="#5156be"/><path d="M285.26,341.45,272,318.85s1.88,14.95,2.67,25.34Z" opacity="0.2"/><path d="M156.93,471.9l161.6-27.4,69.4,10.59-124.14,77S182.05,519.63,156.93,471.9Z" fill="#2f2e41"/><path d="M156.93,471.9l161.6-27.4,69.4,10.59-124.14,77S182.05,519.63,156.93,471.9Z" opacity="0.2"/><path d="M244.73,190c0,19.37-7.62,36.25-18.87,45a28.58,28.58,0,0,1-17.67,6.41c-10.33,0-19.65-6-26.3-15.73-6.33-9.25-10.23-21.83-10.23-35.68,0-28.39,16.35-51.41,36.53-51.41S244.73,161.59,244.73,190Z" fill="#f9b499"/><path d="M241.37,254.36c-9.48,25.09-24.55,33.2-32,35.74a12.06,12.06,0,0,1-8.39-.27c-26.3-10.51-39.66-42.49-39.66-42.49,17.91-3.16,20.59-21.68,20.59-21.68,6.65,9.7,16,15.73,26.3,15.73A28.58,28.58,0,0,0,225.86,235l.76,9.2C232.37,250.15,241.37,254.36,241.37,254.36Z" fill="#f9b499"/><path d="M231.69,248.54a27.6,27.6,0,0,1-9.52,4.63A32,32,0,0,1,192,245.7a31.6,31.6,0,0,1-10.09-20c6.65,9.7,16,15.73,26.3,15.73A28.58,28.58,0,0,0,225.86,235l.76,9.2Z" fill="#f7a48b"/><path d="M161.3,247.34S142.9,331,136,350c0,0,9.8,73.78,17.87,91.07l107.78-7.49s20.18-72.63,10.38-114.7l-30.64-64.49S232.64,281.27,209,290a11.89,11.89,0,0,1-8.68-.25C192.28,286.34,175.28,276.17,161.3,247.34Z" fill="#5156be"/><path d="M105.44,422l13.25,43.23s3.46,12.68,46.11,6.91c0,0,38.62-6.34,61.1-11.52,0,0,4.3-20.68,3.72-28.75,0,0-22.53,7.48-51,2.81,0,0-18.42-4.46-27.94-2.81,0,0-8.35-39-14.71-81.92,0,0-11.13,27.63-23,54.76Z" fill="#f9b499"/><path d="M130.22,444.5a20.87,20.87,0,0,0,10.37-6.34s4.62-5.9,10.1-6.27" fill="none" stroke="#f7a48b" stroke-miterlimit="10"/><path d="M273.51,369s14.68,28.41,15.21,42.85c0,0-8.07,6.16-10.37,15.39l-3.66,17.29c6.16-.2,12.62-.56,19.36-1.16,5.47-.48,10.74-1.08,15.78-1.76,2.3-3.87,4.66-8,7-12.86,3.44-7.31,6.8-16.37,7.09-22l-38.62-65.28-10.58,2.74Z" fill="#f9b499"/><path d="M172.19,242.52s-8.54-4.94-25.26,7.16l-41.49,25.94s-23.06,12.1-20.18,43.23c0,0,.58,166-12.1,197.12,0,0-30,29.39-7.49,34,0,0,24.2,2.31,36.31,6.92a65.94,65.94,0,0,0,28.24-6.34l-35.74-106,11-22.48s27.05-60.69,30.54-72c0,0,12.37-35.48,25.32-102.63C161.3,247.34,168.44,246.28,172.19,242.52Z" fill="#5156be"/><path d="M172.19,242.52s-8.54-4.94-25.26,7.16l-41.49,25.94s-23.06,12.1-20.18,43.23c0,0,.58,166-12.1,197.12,0,0-30,29.39-7.49,34,0,0,24.2,2.31,36.31,6.92a65.94,65.94,0,0,0,28.24-6.34l-35.74-106,11-22.48s27.05-60.69,30.54-72c0,0,12.37-35.48,25.32-102.63C161.3,247.34,168.44,246.28,172.19,242.52Z" fill="#fff" opacity="0.2"/><path d="M333.1,431.89l-9.22-25.16-38.62-65.28L272,318.85l-30.64-64.49a48.35,48.35,0,0,1-7-3.84,49.45,49.45,0,0,1-7.74-6.34c5.64,3.39,12,6.66,19,10.1,9.22,4.57,19.78,9.25,26.73,10.62a21.32,21.32,0,0,1,7.24,2.91c7.32,4.63,21.13,16.53,29.32,43.54,0,0,22.47,59.37,30.54,79,0,0,9.9,24.28,8.74,39.19C348.18,429.51,344.05,428.51,333.1,431.89Z" fill="#5156be"/><path d="M333.1,431.89l-9.22-25.16-38.62-65.28L272,318.85l-30.64-64.49a56.39,56.39,0,0,1-6.88-3.89,57.17,57.17,0,0,1-7.87-6.29c5.64,3.39,12,6.66,19,10.1,9.22,4.57,19.78,9.25,26.73,10.62a21.32,21.32,0,0,1,7.24,2.91c7.32,4.63,21.13,16.53,29.32,43.54,0,0,22.47,59.37,30.54,79,0,0,9.9,24.28,8.74,39.19C348.18,429.51,344.05,428.51,333.1,431.89Z" fill="#fff" opacity="0.2"/><path d="M53.84,477.21s26.23,52,90.21,79.69c0,0,5.19-1.74,9.22-8.66,0,0,6.14-5,18.92-4.25Z" fill="#2f2e41"/><path d="M53.84,477.21s26.23,52,90.21,79.69c0,0,5.19-1.74,9.22-8.66,0,0,6.14-5,18.92-4.25Z" opacity="0.2"/><path d="M247.89,563.91H351.55s24.2-.68,31.7,6.24c0,0,1.73,3.45,6.34,0,0,0,6.34.47,9.22-2.36,0,0,6.34,2,6.92-3.9,0,0,4.61-.06,5.76-7,0,0,4.41,5.29,8.22-2.27A5.28,5.28,0,0,0,418,548,51.8,51.8,0,0,0,391.89,539a12.37,12.37,0,0,1-8.43-4.24,15.88,15.88,0,0,0-11.31-5.18c-5.87-.15-15,1.24-28.53,6.9,0,0-7.64,4.25-16.86-2.09,0,0-10.56-3-28.06,4.61l-34.91-6.94S260.66,552.49,247.89,563.91Z" fill="#f9b499"/><path d="M144.05,556.9S111.2,569,119.27,580.52c0,0,4.2,5.19,8.64,0a7.61,7.61,0,0,0,8.07,5.19s1.16,4.11,8.07,0c0,0,0,4.45,6.64,1.8,0,0,2.89,5.31,10.85-2.18,0,0,7-8.43,22.94-8.89,3.28-.47,45.41-5.74,52-11.77,0,0-32.15-7.55-62.8-20.52a8.17,8.17,0,0,0-2.92-.66c-3.13-.1-10.77.13-15.9,3.07a8.57,8.57,0,0,0-2.8,2.69C150.7,551.25,148.24,555.15,144.05,556.9Z" fill="#f9b499"/><path d="M171,482.37s35.62-24,47.21-37.87c0,0,70.58,1.67,94.45-3.46,0,0-15.09,14.88-88.83,8.91L176,486.27Z" fill="#e6e7e8"/><path d="M182.27,490.14,176,486.27,223.81,450s66.36,6.76,88.83-8.91c-8.48,6.64-17.17,13.81-26,21.55Q279,469.28,272,475.91c-6.48.68-13.31,1.13-20.46,1.52-11.22.61-24.41.94-32.31-.22C219.24,477.21,190.25,489.6,182.27,490.14Z" fill="#bcbec0"/><path d="M309.83,441.58l2.81-.54s10.44-6.85,20.46-9.15l-9.22-25.16S322.7,419.22,309.83,441.58Z" fill="#5156be"/><path d="M309.83,441.58l2.81-.54s10.44-6.85,20.46-9.15l-9.22-25.16S322.7,419.22,309.83,441.58Z" fill="#fff" opacity="0.5"/><path d="M268,405.74s11.94,10.68,12.66,15.65c0,0,2.06-4.63,8-9.57,0,0,1.21-9.81-15.21-42.85C273.51,369,270.59,393.52,268,405.74Z" fill="#5156be"/><path d="M268,405.74s11.94,10.68,12.66,15.65c0,0,2.06-4.63,8-9.57,0,0,1.21-9.81-15.21-42.85C273.51,369,270.59,393.52,268,405.74Z" fill="#fff" opacity="0.5"/><path d="M177.77,236.22s-13.33,1.1-14.47-10.56c0,0-28.14-18.12-15.21-29.53,0,0,8.37-3.42,9.89-20.54,0,0-4.94-37.26,28.14-51.71,0,0,29.92-19.78,50.33,3.8,0,0,39-5.7,29.53,58.94,0,0,10.74,23.89-1.52,20.54,0,0-2.28,7.6,3.42,9.88,0,0-1.52,4.19-8.37-1.14,0,0,13.79,25.75-14.78,28.28,0,0,6-8.88,2.61-12.69,0,0-8.75,19.67-20.72,12.69l-.76-9.2s9-6.11,14.69-21.1a53.42,53.42,0,0,0,3.94-18s-8-.23-8-20.83c0,0,3.27-18.73-5.39-22.94,0,0-9.36-9.13-13.81,2.34,0,0-19.47,35.12-38.65,33.94,0,0,1.51,9.3-6.1,12.66,0,0,1.95,14.48,9.39,24.65C181.89,225.66,180.49,232.61,177.77,236.22Z" fill="#2f2e41"/><path d="M293.9,437.52l-10.57-3.13L231,388.54a4.08,4.08,0,0,1-.51-5.6h0a4.08,4.08,0,0,1,5.83-.58l53.61,45.38Z" fill="#2f2e41"/><ellipse cx="244.73" cy="204.39" rx="10.61" ry="6.55" transform="translate(-60.92 295.21) rotate(-56.42)" fill="#f9b499"/><ellipse cx="172.19" cy="190.54" rx="6.55" ry="10.61" fill="#f9b499"/><path d="M74.62,498.12c33,17.32,120.88,61.53,170.3,68,0,0,17.29-9.8,20.17-40.34,0,0-4-6.92-16.71-5.77,0,0-30-6.91-73.78-34.58,0,0-95.68-82.92-121-47.22,0,0-6.9,9.53-4.13,25.75A48,48,0,0,0,74.62,498.12Z" fill="#2f2e41"/><path d="M265.09,525.77s115.28-75.51,130.84-90.5c0,0,37.32-26.28,58.75,4.49a13.57,13.57,0,0,1,1.2,13.53c-5.44,11.56-25.31,35.52-94.53,77.66l-62.65,19.6-37-8.25Z" fill="#2f2e41"/><path d="M400.25,480.42c-5.07-8.14-26.95-36.49-87.61-39.38q-8.88,6.87-18.11,14.65c-8.06,6.82-15.56,13.59-22.52,20.22a57.59,57.59,0,0,1,17.77-7.9c10.25-2.82,23.22-3.38,34.1,5.66,0,0,11.42,8.33,16.34,16.72a3.26,3.26,0,0,0,3.86,1.47c8.17-2.76,33.79-10.69,55-9.44A1.31,1.31,0,0,0,400.25,480.42Z" fill="#d1d3d4"/><path d="M312.64,441s65-6.06,88.79,26.45A1,1,0,0,1,401,469l-7.39,2.87S370.33,443.81,312.64,441Z" fill="#e6e7e8"/><path d="M312.64,441c.12.35,40.57-30.35,82.52,5l-17.69,3.54S355.56,438.63,312.64,441Z" fill="#e6e7e8"/><path d="M288.72,411.82s8.69,1.94,14.84-5.09" fill="none" stroke="#f7a48b" stroke-miterlimit="10"/><path d="M226.15,444.5s2.35-10.85.47-15.23c0,0-5.86-8.9,2.1-11.82a6.56,6.56,0,0,0,2.65-5.63s1-5.77,10.44-8.42c0,0,15.12-9.8,26.21,2.34,0,0,7.83,6.28,11.7,13a4.13,4.13,0,0,1-.59,5,2,2,0,0,1-2.68.42s6.85,8.35.38,10.24c0,0,6.12,3.18-1.41,6.65,0,0,3.37,3.52-.73,3.46Z" fill="#f9b499"/><path d="M238,439.45s9.81-4.49,15.91-2.64c0,0,14.12,3.68,21.51,4.23" fill="none" stroke="#f7a48b" stroke-miterlimit="10"/><path d="M234.82,429.27s10.34-7.31,23.07-2.8l18.94,7.92" fill="none" stroke="#f7a48b" stroke-miterlimit="10"/><path d="M234.82,415.07s11.71-4.64,17.79-3.25l23.84,12.33" fill="none" stroke="#f7a48b" stroke-miterlimit="10"/><path d="M127.91,580.52s2.2-5.27,10.45-8.84" fill="none" stroke="#f7a48b" stroke-miterlimit="10"/><path d="M136,585.71s1.3-4,7.76-7.19" fill="none" stroke="#f7a48b" stroke-miterlimit="10"/><path d="M144.05,585.75s1.58-3.32,7-3.64" fill="none" stroke="#f7a48b" stroke-miterlimit="10"/><path d="M150.69,587.55a24.16,24.16,0,0,1,8.28-5.44" fill="none" stroke="#f7a48b" stroke-miterlimit="10"/><path d="M389.59,570.15a18.3,18.3,0,0,0-8.25-5.29" fill="none" stroke="#f7a48b" stroke-miterlimit="10"/><path d="M398.81,567.79s-5.34-7.49-10.88-8.63" fill="none" stroke="#f7a48b" stroke-miterlimit="10"/><path d="M405.73,563.89a20,20,0,0,0-10.2-8" fill="none" stroke="#f7a48b" stroke-miterlimit="10"/><path d="M411.49,556.9s-3.62-7.6-10.86-8.31" fill="none" stroke="#f7a48b" stroke-miterlimit="10"/></svg>